solid 
facet normal -0.9659262 -0.25881755 -0
 outer loop
  vertex 2.8214595 2.9369988 0
  vertex 2.8214595 2.9369988 0.1
  vertex 2.7955778 3.0335915 0.1
 endloop
endfacet
facet normal -0.9659262 -0.25881755 0
 outer loop
  vertex 2.8214595 2.9369988 0
  vertex 2.7955778 3.0335915 0.1
  vertex 2.7955778 3.0335915 0
 endloop
endfacet
facet normal -0.25882038 0.96592546 0
 outer loop
  vertex 2.7955778 3.0335915 0
  vertex 2.7955778 3.0335915 0.1
  vertex 2.8921702 3.0594735 0.1
 endloop
endfacet
facet normal -0.25882038 0.96592546 0
 outer loop
  vertex 2.7955778 3.0335915 0
  vertex 2.8921702 3.0594735 0.1
  vertex 2.8921702 3.0594735 0
 endloop
endfacet
facet normal 0.96592563 0.2588198 0
 outer loop
  vertex 2.8921702 3.0594735 0
  vertex 2.8921702 3.0594735 0.1
  vertex 2.9180522 2.9628808 0.1
 endloop
endfacet
facet normal 0.96592563 0.2588198 -0
 outer loop
  vertex 2.8921702 3.0594735 0
  vertex 2.9180522 2.9628808 0.1
  vertex 2.9180522 2.9628808 0
 endloop
endfacet
facet normal 0.2588198 -0.96592563 0
 outer loop
  vertex 2.9180522 2.9628808 0
  vertex 2.9180522 2.9628808 0.1
  vertex 2.8214595 2.9369988 0.1
 endloop
endfacet
facet normal 0.2588198 -0.96592563 0
 outer loop
  vertex 2.9180522 2.9628808 0
  vertex 2.8214595 2.9369988 0.1
  vertex 2.8214595 2.9369988 0
 endloop
endfacet
facet normal -0 0 -1
 outer loop
  vertex 2.7955778 3.0335915 0
  vertex 2.8921702 3.0594735 0
  vertex 2.9180522 2.9628808 0
 endloop
endfacet
facet normal 0 0 -1
 outer loop
  vertex 2.7955778 3.0335915 0
  vertex 2.9180522 2.9628808 0
  vertex 2.8214595 2.9369988 0
 endloop
endfacet
facet normal 0 -0 1
 outer loop
  vertex 2.8921702 3.0594735 0.1
  vertex 2.7955778 3.0335915 0.1
  vertex 2.8214595 2.9369988 0.1
 endloop
endfacet
facet normal 0 -0 1
 outer loop
  vertex 2.8921702 3.0594735 0.1
  vertex 2.8214595 2.9369988 0.1
  vertex 2.9180522 2.9628808 0.1
 endloop
endfacet
facet normal -0.965926 -0.25881815 -0
 outer loop
  vertex 3.20783 3.0405269 0
  vertex 3.20783 3.0405269 0.1
  vertex 3.1819482 3.1371193 0.1
 endloop
endfacet
facet normal -0.965926 -0.25881815 0
 outer loop
  vertex 3.20783 3.0405269 0
  vertex 3.1819482 3.1371193 0.1
  vertex 3.1819482 3.1371193 0
 endloop
endfacet
facet normal -0.25882038 0.96592546 0
 outer loop
  vertex 3.1819482 3.1371193 0
  vertex 3.1819482 3.1371193 0.1
  vertex 3.2785406 3.1630013 0.1
 endloop
endfacet
facet normal -0.25882038 0.96592546 0
 outer loop
  vertex 3.1819482 3.1371193 0
  vertex 3.2785406 3.1630013 0.1
  vertex 3.2785406 3.1630013 0
 endloop
endfacet
facet normal 0.96592563 0.2588198 0
 outer loop
  vertex 3.2785406 3.1630013 0
  vertex 3.2785406 3.1630013 0.1
  vertex 3.3044226 3.0664086 0.1
 endloop
endfacet
facet normal 0.96592563 0.2588198 -0
 outer loop
  vertex 3.2785406 3.1630013 0
  vertex 3.3044226 3.0664086 0.1
  vertex 3.3044226 3.0664086 0
 endloop
endfacet
facet normal 0.25881755 -0.9659262 0
 outer loop
  vertex 3.3044226 3.0664086 0
  vertex 3.3044226 3.0664086 0.1
  vertex 3.20783 3.0405269 0.1
 endloop
endfacet
facet normal 0.25881755 -0.9659262 0
 outer loop
  vertex 3.3044226 3.0664086 0
  vertex 3.20783 3.0405269 0.1
  vertex 3.20783 3.0405269 0
 endloop
endfacet
facet normal -0 0 -1
 outer loop
  vertex 3.1819482 3.1371193 0
  vertex 3.2785406 3.1630013 0
  vertex 3.3044226 3.0664086 0
 endloop
endfacet
facet normal 0 0 -1
 outer loop
  vertex 3.1819482 3.1371193 0
  vertex 3.3044226 3.0664086 0
  vertex 3.20783 3.0405269 0
 endloop
endfacet
facet normal 0 -0 1
 outer loop
  vertex 3.2785406 3.1630013 0.1
  vertex 3.1819482 3.1371193 0.1
  vertex 3.20783 3.0405269 0.1
 endloop
endfacet
facet normal 0 -0 1
 outer loop
  vertex 3.2785406 3.1630013 0.1
  vertex 3.20783 3.0405269 0.1
  vertex 3.3044226 3.0664086 0.1
 endloop
endfacet
facet normal -0.9659262 -0.25881755 -0
 outer loop
  vertex 3.1560662 3.233712 0
  vertex 3.1560662 3.233712 0.1
  vertex 3.1301844 3.3303046 0.1
 endloop
endfacet
facet normal -0.9659262 -0.25881755 0
 outer loop
  vertex 3.1560662 3.233712 0
  vertex 3.1301844 3.3303046 0.1
  vertex 3.1301844 3.3303046 0
 endloop
endfacet
facet normal -0.25881815 0.965926 0
 outer loop
  vertex 3.1301844 3.3303046 0
  vertex 3.1301844 3.3303046 0.1
  vertex 3.2267768 3.3561864 0.1
 endloop
endfacet
facet normal -0.25881815 0.965926 0
 outer loop
  vertex 3.1301844 3.3303046 0
  vertex 3.2267768 3.3561864 0.1
  vertex 3.2267768 3.3561864 0
 endloop
endfacet
facet normal 0.96592546 0.25882038 0
 outer loop
  vertex 3.2267768 3.3561864 0
  vertex 3.2267768 3.3561864 0.1
  vertex 3.2526588 3.259594 0.1
 endloop
endfacet
facet normal 0.96592546 0.25882038 -0
 outer loop
  vertex 3.2267768 3.3561864 0
  vertex 3.2526588 3.259594 0.1
  vertex 3.2526588 3.259594 0
 endloop
endfacet
facet normal 0.2588198 -0.96592563 0
 outer loop
  vertex 3.2526588 3.259594 0
  vertex 3.2526588 3.259594 0.1
  vertex 3.1560662 3.233712 0.1
 endloop
endfacet
facet normal 0.2588198 -0.96592563 0
 outer loop
  vertex 3.2526588 3.259594 0
  vertex 3.1560662 3.233712 0.1
  vertex 3.1560662 3.233712 0
 endloop
endfacet
facet normal -0 0 -1
 outer loop
  vertex 3.1301844 3.3303046 0
  vertex 3.2267768 3.3561864 0
  vertex 3.2526588 3.259594 0
 endloop
endfacet
facet normal 0 0 -1
 outer loop
  vertex 3.1301844 3.3303046 0
  vertex 3.2526588 3.259594 0
  vertex 3.1560662 3.233712 0
 endloop
endfacet
facet normal 0 -0 1
 outer loop
  vertex 3.2267768 3.3561864 0.1
  vertex 3.1301844 3.3303046 0.1
  vertex 3.1560662 3.233712 0.1
 endloop
endfacet
facet normal 0 -0 1
 outer loop
  vertex 3.2267768 3.3561864 0.1
  vertex 3.1560662 3.233712 0.1
  vertex 3.2526588 3.259594 0.1
 endloop
endfacet
facet normal -0.96592563 -0.2588198 -0
 outer loop
  vertex 3.259594 2.8473415 0
  vertex 3.259594 2.8473415 0.1
  vertex 3.233712 2.9439342 0.1
 endloop
endfacet
facet normal -0.96592563 -0.2588198 0
 outer loop
  vertex 3.259594 2.8473415 0
  vertex 3.233712 2.9439342 0.1
  vertex 3.233712 2.9439342 0
 endloop
endfacet
facet normal -0.2588198 0.96592563 0
 outer loop
  vertex 3.233712 2.9439342 0
  vertex 3.233712 2.9439342 0.1
  vertex 3.3303046 2.9698162 0.1
 endloop
endfacet
facet normal -0.2588198 0.96592563 0
 outer loop
  vertex 3.233712 2.9439342 0
  vertex 3.3303046 2.9698162 0.1
  vertex 3.3303046 2.9698162 0
 endloop
endfacet
facet normal 0.9659262 0.25881755 0
 outer loop
  vertex 3.3303046 2.9698162 0
  vertex 3.3303046 2.9698162 0.1
  vertex 3.3561864 2.8732235 0.1
 endloop
endfacet
facet normal 0.9659262 0.25881755 -0
 outer loop
  vertex 3.3303046 2.9698162 0
  vertex 3.3561864 2.8732235 0.1
  vertex 3.3561864 2.8732235 0
 endloop
endfacet
facet normal 0.25882038 -0.96592546 0
 outer loop
  vertex 3.3561864 2.8732235 0
  vertex 3.3561864 2.8732235 0.1
  vertex 3.259594 2.8473415 0.1
 endloop
endfacet
facet normal 0.25882038 -0.96592546 0
 outer loop
  vertex 3.3561864 2.8732235 0
  vertex 3.259594 2.8473415 0.1
  vertex 3.259594 2.8473415 0
 endloop
endfacet
facet normal -0 0 -1
 outer loop
  vertex 3.233712 2.9439342 0
  vertex 3.3303046 2.9698162 0
  vertex 3.3561864 2.8732235 0
 endloop
endfacet
facet normal 0 0 -1
 outer loop
  vertex 3.233712 2.9439342 0
  vertex 3.3561864 2.8732235 0
  vertex 3.259594 2.8473415 0
 endloop
endfacet
facet normal 0 -0 1
 outer loop
  vertex 3.3303046 2.9698162 0.1
  vertex 3.233712 2.9439342 0.1
  vertex 3.259594 2.8473415 0.1
 endloop
endfacet
facet normal 0 -0 1
 outer loop
  vertex 3.3303046 2.9698162 0.1
  vertex 3.259594 2.8473415 0.1
  vertex 3.3561864 2.8732235 0.1
 endloop
endfacet
facet normal -0.96592546 -0.25882038 -0
 outer loop
  vertex 2.962881 3.1819482 0
  vertex 2.962881 3.1819482 0.1
  vertex 2.936999 3.2785406 0.1
 endloop
endfacet
facet normal -0.96592546 -0.25882038 0
 outer loop
  vertex 2.962881 3.1819482 0
  vertex 2.936999 3.2785406 0.1
  vertex 2.936999 3.2785406 0
 endloop
endfacet
facet normal -0.2588198 0.96592563 0
 outer loop
  vertex 2.936999 3.2785406 0
  vertex 2.936999 3.2785406 0.1
  vertex 3.0335917 3.3044226 0.1
 endloop
endfacet
facet normal -0.2588198 0.96592563 0
 outer loop
  vertex 2.936999 3.2785406 0
  vertex 3.0335917 3.3044226 0.1
  vertex 3.0335917 3.3044226 0
 endloop
endfacet
facet normal 0.96592563 0.2588198 0
 outer loop
  vertex 3.0335917 3.3044226 0
  vertex 3.0335917 3.3044226 0.1
  vertex 3.0594738 3.20783 0.1
 endloop
endfacet
facet normal 0.96592563 0.2588198 -0
 outer loop
  vertex 3.0335917 3.3044226 0
  vertex 3.0594738 3.20783 0.1
  vertex 3.0594738 3.20783 0
 endloop
endfacet
facet normal 0.25881755 -0.9659262 0
 outer loop
  vertex 3.0594738 3.20783 0
  vertex 3.0594738 3.20783 0.1
  vertex 2.962881 3.1819482 0.1
 endloop
endfacet
facet normal 0.25881755 -0.9659262 0
 outer loop
  vertex 3.0594738 3.20783 0
  vertex 2.962881 3.1819482 0.1
  vertex 2.962881 3.1819482 0
 endloop
endfacet
facet normal -0 0 -1
 outer loop
  vertex 2.936999 3.2785406 0
  vertex 3.0335917 3.3044226 0
  vertex 3.0594738 3.20783 0
 endloop
endfacet
facet normal 0 0 -1
 outer loop
  vertex 2.936999 3.2785406 0
  vertex 3.0594738 3.20783 0
  vertex 2.962881 3.1819482 0
 endloop
endfacet
facet normal 0 -0 1
 outer loop
  vertex 3.0335917 3.3044226 0.1
  vertex 2.936999 3.2785406 0.1
  vertex 2.962881 3.1819482 0.1
 endloop
endfacet
facet normal 0 -0 1
 outer loop
  vertex 3.0335917 3.3044226 0.1
  vertex 2.962881 3.1819482 0.1
  vertex 3.0594738 3.20783 0.1
 endloop
endfacet
facet normal -0.9659262 -0.25881755 -0
 outer loop
  vertex 3.0664086 2.7955778 0
  vertex 3.0664086 2.7955778 0.1
  vertex 3.0405269 2.8921704 0.1
 endloop
endfacet
facet normal -0.9659262 -0.25881755 0
 outer loop
  vertex 3.0664086 2.7955778 0
  vertex 3.0405269 2.8921704 0.1
  vertex 3.0405269 2.8921704 0
 endloop
endfacet
facet normal -0.25881815 0.965926 0
 outer loop
  vertex 3.0405269 2.8921704 0
  vertex 3.0405269 2.8921704 0.1
  vertex 3.1371193 2.9180522 0.1
 endloop
endfacet
facet normal -0.25881815 0.965926 0
 outer loop
  vertex 3.0405269 2.8921704 0
  vertex 3.1371193 2.9180522 0.1
  vertex 3.1371193 2.9180522 0
 endloop
endfacet
facet normal 0.96592546 0.25882038 0
 outer loop
  vertex 3.1371193 2.9180522 0
  vertex 3.1371193 2.9180522 0.1
  vertex 3.1630013 2.8214598 0.1
 endloop
endfacet
facet normal 0.96592546 0.25882038 -0
 outer loop
  vertex 3.1371193 2.9180522 0
  vertex 3.1630013 2.8214598 0.1
  vertex 3.1630013 2.8214598 0
 endloop
endfacet
facet normal 0.2588198 -0.96592563 0
 outer loop
  vertex 3.1630013 2.8214598 0
  vertex 3.1630013 2.8214598 0.1
  vertex 3.0664086 2.7955778 0.1
 endloop
endfacet
facet normal 0.2588198 -0.96592563 0
 outer loop
  vertex 3.1630013 2.8214598 0
  vertex 3.0664086 2.7955778 0.1
  vertex 3.0664086 2.7955778 0
 endloop
endfacet
facet normal -0 0 -1
 outer loop
  vertex 3.0405269 2.8921704 0
  vertex 3.1371193 2.9180522 0
  vertex 3.1630013 2.8214598 0
 endloop
endfacet
facet normal 0 0 -1
 outer loop
  vertex 3.0405269 2.8921704 0
  vertex 3.1630013 2.8214598 0
  vertex 3.0664086 2.7955778 0
 endloop
endfacet
facet normal 0 -0 1
 outer loop
  vertex 3.1371193 2.9180522 0.1
  vertex 3.0405269 2.8921704 0.1
  vertex 3.0664086 2.7955778 0.1
 endloop
endfacet
facet normal 0 -0 1
 outer loop
  vertex 3.1371193 2.9180522 0.1
  vertex 3.0664086 2.7955778 0.1
  vertex 3.1630013 2.8214598 0.1
 endloop
endfacet
facet normal -0.96592563 -0.2588198 -0
 outer loop
  vertex 2.8732235 2.743814 0
  vertex 2.8732235 2.743814 0.1
  vertex 2.8473415 2.8404067 0.1
 endloop
endfacet
facet normal -0.96592563 -0.2588198 0
 outer loop
  vertex 2.8732235 2.743814 0
  vertex 2.8473415 2.8404067 0.1
  vertex 2.8473415 2.8404067 0
 endloop
endfacet
facet normal -0.25881755 0.9659262 0
 outer loop
  vertex 2.8473415 2.8404067 0
  vertex 2.8473415 2.8404067 0.1
  vertex 2.9439342 2.8662884 0.1
 endloop
endfacet
facet normal -0.25881755 0.9659262 0
 outer loop
  vertex 2.8473415 2.8404067 0
  vertex 2.9439342 2.8662884 0.1
  vertex 2.9439342 2.8662884 0
 endloop
endfacet
facet normal 0.96592546 0.25882038 0
 outer loop
  vertex 2.9439342 2.8662884 0
  vertex 2.9439342 2.8662884 0.1
  vertex 2.9698162 2.769696 0.1
 endloop
endfacet
facet normal 0.96592546 0.25882038 -0
 outer loop
  vertex 2.9439342 2.8662884 0
  vertex 2.9698162 2.769696 0.1
  vertex 2.9698162 2.769696 0
 endloop
endfacet
facet normal 0.2588198 -0.96592563 0
 outer loop
  vertex 2.9698162 2.769696 0
  vertex 2.9698162 2.769696 0.1
  vertex 2.8732235 2.743814 0.1
 endloop
endfacet
facet normal 0.2588198 -0.96592563 0
 outer loop
  vertex 2.9698162 2.769696 0
  vertex 2.8732235 2.743814 0.1
  vertex 2.8732235 2.743814 0
 endloop
endfacet
facet normal -0 0 -1
 outer loop
  vertex 2.8473415 2.8404067 0
  vertex 2.9439342 2.8662884 0
  vertex 2.9698162 2.769696 0
 endloop
endfacet
facet normal 0 0 -1
 outer loop
  vertex 2.8473415 2.8404067 0
  vertex 2.9698162 2.769696 0
  vertex 2.8732235 2.743814 0
 endloop
endfacet
facet normal 0 -0 1
 outer loop
  vertex 2.9439342 2.8662884 0.1
  vertex 2.8473415 2.8404067 0.1
  vertex 2.8732235 2.743814 0.1
 endloop
endfacet
facet normal 0 -0 1
 outer loop
  vertex 2.9439342 2.8662884 0.1
  vertex 2.8732235 2.743814 0.1
  vertex 2.9698162 2.769696 0.1
 endloop
endfacet
facet normal -0.965926 -0.25881815 -0
 outer loop
  vertex 2.7696958 3.1301844 0
  vertex 2.7696958 3.1301844 0.1
  vertex 2.743814 3.2267768 0.1
 endloop
endfacet
facet normal -0.965926 -0.25881815 0
 outer loop
  vertex 2.7696958 3.1301844 0
  vertex 2.743814 3.2267768 0.1
  vertex 2.743814 3.2267768 0
 endloop
endfacet
facet normal -0.2588198 0.96592563 0
 outer loop
  vertex 2.743814 3.2267768 0
  vertex 2.743814 3.2267768 0.1
  vertex 2.8404067 3.2526588 0.1
 endloop
endfacet
facet normal -0.2588198 0.96592563 0
 outer loop
  vertex 2.743814 3.2267768 0
  vertex 2.8404067 3.2526588 0.1
  vertex 2.8404067 3.2526588 0
 endloop
endfacet
facet normal 0.9659262 0.25881755 0
 outer loop
  vertex 2.8404067 3.2526588 0
  vertex 2.8404067 3.2526588 0.1
  vertex 2.8662884 3.1560662 0.1
 endloop
endfacet
facet normal 0.9659262 0.25881755 -0
 outer loop
  vertex 2.8404067 3.2526588 0
  vertex 2.8662884 3.1560662 0.1
  vertex 2.8662884 3.1560662 0
 endloop
endfacet
facet normal 0.25881755 -0.9659262 0
 outer loop
  vertex 2.8662884 3.1560662 0
  vertex 2.8662884 3.1560662 0.1
  vertex 2.7696958 3.1301844 0.1
 endloop
endfacet
facet normal 0.25881755 -0.9659262 0
 outer loop
  vertex 2.8662884 3.1560662 0
  vertex 2.7696958 3.1301844 0.1
  vertex 2.7696958 3.1301844 0
 endloop
endfacet
facet normal -0 0 -1
 outer loop
  vertex 2.743814 3.2267768 0
  vertex 2.8404067 3.2526588 0
  vertex 2.8662884 3.1560662 0
 endloop
endfacet
facet normal 0 0 -1
 outer loop
  vertex 2.743814 3.2267768 0
  vertex 2.8662884 3.1560662 0
  vertex 2.7696958 3.1301844 0
 endloop
endfacet
facet normal 0 -0 1
 outer loop
  vertex 2.8404067 3.2526588 0.1
  vertex 2.743814 3.2267768 0.1
  vertex 2.7696958 3.1301844 0.1
 endloop
endfacet
facet normal 0 -0 1
 outer loop
  vertex 2.8404067 3.2526588 0.1
  vertex 2.7696958 3.1301844 0.1
  vertex 2.8662884 3.1560662 0.1
 endloop
endfacet
endsolid 
