solid 
facet normal 0 -0 1
 outer loop
  vertex 3.0853553 3.1112373 0.6
  vertex 2.9887626 3.0853553 0.6
  vertex 3.0146446 2.9887626 0.6
 endloop
endfacet
facet normal 0 -0 1
 outer loop
  vertex 3.0853553 3.1112373 0.6
  vertex 3.0146446 2.9887626 0.6
  vertex 3.1112373 3.0146446 0.6
 endloop
endfacet
facet normal 0.2588198 -0.96592563 0
 outer loop
  vertex 3.1112373 3.0146446 0
  vertex 3.1112373 3.0146446 0.6
  vertex 3.0146446 2.9887626 0.6
 endloop
endfacet
facet normal 0.2588198 -0.96592563 0
 outer loop
  vertex 3.1112373 3.0146446 0
  vertex 3.0146446 2.9887626 0.6
  vertex 3.0146446 2.9887626 0
 endloop
endfacet
facet normal -0.96592563 -0.2588198 -0
 outer loop
  vertex 3.0146446 2.9887626 0
  vertex 3.0146446 2.9887626 0.6
  vertex 2.9887626 3.0853553 0.6
 endloop
endfacet
facet normal -0.96592563 -0.2588198 0
 outer loop
  vertex 3.0146446 2.9887626 0
  vertex 2.9887626 3.0853553 0.6
  vertex 2.9887626 3.0853553 0
 endloop
endfacet
facet normal -0 0 -1
 outer loop
  vertex 2.9887626 3.0853553 0
  vertex 3.0853553 3.1112373 0
  vertex 3.1112373 3.0146446 0
 endloop
endfacet
facet normal 0 0 -1
 outer loop
  vertex 2.9887626 3.0853553 0
  vertex 3.1112373 3.0146446 0
  vertex 3.0146446 2.9887626 0
 endloop
endfacet
facet normal 0.96592563 0.2588198 0
 outer loop
  vertex 3.0853553 3.1112373 0
  vertex 3.0853553 3.1112373 0.6
  vertex 3.1112373 3.0146446 0.6
 endloop
endfacet
facet normal 0.96592563 0.2588198 -0
 outer loop
  vertex 3.0853553 3.1112373 0
  vertex 3.1112373 3.0146446 0.6
  vertex 3.1112373 3.0146446 0
 endloop
endfacet
facet normal -0.2588198 0.96592563 0
 outer loop
  vertex 2.9887626 3.0853553 0
  vertex 2.9887626 3.0853553 0.6
  vertex 3.0853553 3.1112373 0.6
 endloop
endfacet
facet normal -0.2588198 0.96592563 0
 outer loop
  vertex 2.9887626 3.0853553 0
  vertex 3.0853553 3.1112373 0.6
  vertex 3.0853553 3.1112373 0
 endloop
endfacet
endsolid 
