solid 
facet normal -0.70710677 -0.70710677 -0
 outer loop
  vertex 2.9085789 2.837868 0
  vertex 2.9085789 2.837868 0.1
  vertex 2.8378682 2.9085786 0.1
 endloop
endfacet
facet normal -0.70710677 -0.70710677 0
 outer loop
  vertex 2.9085789 2.837868 0
  vertex 2.8378682 2.9085786 0.1
  vertex 2.8378682 2.9085786 0
 endloop
endfacet
facet normal -0.70710677 0.70710677 0
 outer loop
  vertex 2.8378682 2.9085786 0
  vertex 2.8378682 2.9085786 0.1
  vertex 2.9085789 2.9792893 0.1
 endloop
endfacet
facet normal -0.70710677 0.70710677 0
 outer loop
  vertex 2.8378682 2.9085786 0
  vertex 2.9085789 2.9792893 0.1
  vertex 2.9085789 2.9792893 0
 endloop
endfacet
facet normal 0.70710677 0.70710677 0
 outer loop
  vertex 2.9085789 2.9792893 0
  vertex 2.9085789 2.9792893 0.1
  vertex 2.9792895 2.9085786 0.1
 endloop
endfacet
facet normal 0.70710677 0.70710677 -0
 outer loop
  vertex 2.9085789 2.9792893 0
  vertex 2.9792895 2.9085786 0.1
  vertex 2.9792895 2.9085786 0
 endloop
endfacet
facet normal 0.70710677 -0.70710677 0
 outer loop
  vertex 2.9792895 2.9085786 0
  vertex 2.9792895 2.9085786 0.1
  vertex 2.9085789 2.837868 0.1
 endloop
endfacet
facet normal 0.70710677 -0.70710677 0
 outer loop
  vertex 2.9792895 2.9085786 0
  vertex 2.9085789 2.837868 0.1
  vertex 2.9085789 2.837868 0
 endloop
endfacet
facet normal -0 0 -1
 outer loop
  vertex 2.8378682 2.9085786 0
  vertex 2.9085789 2.9792893 0
  vertex 2.9792895 2.9085786 0
 endloop
endfacet
facet normal 0 0 -1
 outer loop
  vertex 2.8378682 2.9085786 0
  vertex 2.9792895 2.9085786 0
  vertex 2.9085789 2.837868 0
 endloop
endfacet
facet normal 0 -0 1
 outer loop
  vertex 2.9085789 2.9792893 0.1
  vertex 2.8378682 2.9085786 0.1
  vertex 2.9085789 2.837868 0.1
 endloop
endfacet
facet normal 0 -0 1
 outer loop
  vertex 2.9085789 2.9792893 0.1
  vertex 2.9085789 2.837868 0.1
  vertex 2.9792895 2.9085786 0.1
 endloop
endfacet
facet normal -0.70710677 -0.70710677 -0
 outer loop
  vertex 3.1914215 3.1207108 0
  vertex 3.1914215 3.1207108 0.1
  vertex 3.1207108 3.1914215 0.1
 endloop
endfacet
facet normal -0.70710677 -0.70710677 0
 outer loop
  vertex 3.1914215 3.1207108 0
  vertex 3.1207108 3.1914215 0.1
  vertex 3.1207108 3.1914215 0
 endloop
endfacet
facet normal -0.70710677 0.70710677 0
 outer loop
  vertex 3.1207108 3.1914215 0
  vertex 3.1207108 3.1914215 0.1
  vertex 3.1914215 3.2621322 0.1
 endloop
endfacet
facet normal -0.70710677 0.70710677 0
 outer loop
  vertex 3.1207108 3.1914215 0
  vertex 3.1914215 3.2621322 0.1
  vertex 3.1914215 3.2621322 0
 endloop
endfacet
facet normal 0.70710677 0.70710677 0
 outer loop
  vertex 3.1914215 3.2621322 0
  vertex 3.1914215 3.2621322 0.1
  vertex 3.2621322 3.1914215 0.1
 endloop
endfacet
facet normal 0.70710677 0.70710677 -0
 outer loop
  vertex 3.1914215 3.2621322 0
  vertex 3.2621322 3.1914215 0.1
  vertex 3.2621322 3.1914215 0
 endloop
endfacet
facet normal 0.70710677 -0.70710677 0
 outer loop
  vertex 3.2621322 3.1914215 0
  vertex 3.2621322 3.1914215 0.1
  vertex 3.1914215 3.1207108 0.1
 endloop
endfacet
facet normal 0.70710677 -0.70710677 0
 outer loop
  vertex 3.2621322 3.1914215 0
  vertex 3.1914215 3.1207108 0.1
  vertex 3.1914215 3.1207108 0
 endloop
endfacet
facet normal -0 0 -1
 outer loop
  vertex 3.1207108 3.1914215 0
  vertex 3.1914215 3.2621322 0
  vertex 3.2621322 3.1914215 0
 endloop
endfacet
facet normal 0 0 -1
 outer loop
  vertex 3.1207108 3.1914215 0
  vertex 3.2621322 3.1914215 0
  vertex 3.1914215 3.1207108 0
 endloop
endfacet
facet normal 0 -0 1
 outer loop
  vertex 3.1914215 3.2621322 0.1
  vertex 3.1207108 3.1914215 0.1
  vertex 3.1914215 3.1207108 0.1
 endloop
endfacet
facet normal 0 -0 1
 outer loop
  vertex 3.1914215 3.2621322 0.1
  vertex 3.1914215 3.1207108 0.1
  vertex 3.2621322 3.1914215 0.1
 endloop
endfacet
facet normal -0.70710677 -0.70710677 -0
 outer loop
  vertex 3.0500002 3.2621322 0
  vertex 3.0500002 3.2621322 0.1
  vertex 2.9792895 3.3328428 0.1
 endloop
endfacet
facet normal -0.70710677 -0.70710677 0
 outer loop
  vertex 3.0500002 3.2621322 0
  vertex 2.9792895 3.3328428 0.1
  vertex 2.9792895 3.3328428 0
 endloop
endfacet
facet normal -0.70710796 0.7071056 0
 outer loop
  vertex 2.9792895 3.3328428 0
  vertex 2.9792895 3.3328428 0.1
  vertex 3.0500002 3.4035537 0.1
 endloop
endfacet
facet normal -0.70710796 0.7071056 0
 outer loop
  vertex 2.9792895 3.3328428 0
  vertex 3.0500002 3.4035537 0.1
  vertex 3.0500002 3.4035537 0
 endloop
endfacet
facet normal 0.70710796 0.7071056 0
 outer loop
  vertex 3.0500002 3.4035537 0
  vertex 3.0500002 3.4035537 0.1
  vertex 3.1207108 3.3328428 0.1
 endloop
endfacet
facet normal 0.70710796 0.7071056 -0
 outer loop
  vertex 3.0500002 3.4035537 0
  vertex 3.1207108 3.3328428 0.1
  vertex 3.1207108 3.3328428 0
 endloop
endfacet
facet normal 0.70710677 -0.70710677 0
 outer loop
  vertex 3.1207108 3.3328428 0
  vertex 3.1207108 3.3328428 0.1
  vertex 3.0500002 3.2621322 0.1
 endloop
endfacet
facet normal 0.70710677 -0.70710677 0
 outer loop
  vertex 3.1207108 3.3328428 0
  vertex 3.0500002 3.2621322 0.1
  vertex 3.0500002 3.2621322 0
 endloop
endfacet
facet normal -0 0 -1
 outer loop
  vertex 2.9792895 3.3328428 0
  vertex 3.0500002 3.4035537 0
  vertex 3.1207108 3.3328428 0
 endloop
endfacet
facet normal 0 0 -1
 outer loop
  vertex 2.9792895 3.3328428 0
  vertex 3.1207108 3.3328428 0
  vertex 3.0500002 3.2621322 0
 endloop
endfacet
facet normal 0 -0 1
 outer loop
  vertex 3.0500002 3.4035537 0.1
  vertex 2.9792895 3.3328428 0.1
  vertex 3.0500002 3.2621322 0.1
 endloop
endfacet
facet normal 0 -0 1
 outer loop
  vertex 3.0500002 3.4035537 0.1
  vertex 3.0500002 3.2621322 0.1
  vertex 3.1207108 3.3328428 0.1
 endloop
endfacet
facet normal -0.70710677 -0.70710677 -0
 outer loop
  vertex 3.3328428 2.9792895 0
  vertex 3.3328428 2.9792895 0.1
  vertex 3.2621322 3.0500002 0.1
 endloop
endfacet
facet normal -0.70710677 -0.70710677 0
 outer loop
  vertex 3.3328428 2.9792895 0
  vertex 3.2621322 3.0500002 0.1
  vertex 3.2621322 3.0500002 0
 endloop
endfacet
facet normal -0.70710677 0.70710677 0
 outer loop
  vertex 3.2621322 3.0500002 0
  vertex 3.2621322 3.0500002 0.1
  vertex 3.3328428 3.1207108 0.1
 endloop
endfacet
facet normal -0.70710677 0.70710677 0
 outer loop
  vertex 3.2621322 3.0500002 0
  vertex 3.3328428 3.1207108 0.1
  vertex 3.3328428 3.1207108 0
 endloop
endfacet
facet normal 0.70710677 0.70710677 0
 outer loop
  vertex 3.3328428 3.1207108 0
  vertex 3.3328428 3.1207108 0.1
  vertex 3.4035535 3.0500002 0.1
 endloop
endfacet
facet normal 0.70710677 0.70710677 -0
 outer loop
  vertex 3.3328428 3.1207108 0
  vertex 3.4035535 3.0500002 0.1
  vertex 3.4035535 3.0500002 0
 endloop
endfacet
facet normal 0.70710677 -0.70710677 0
 outer loop
  vertex 3.4035535 3.0500002 0
  vertex 3.4035535 3.0500002 0.1
  vertex 3.3328428 2.9792895 0.1
 endloop
endfacet
facet normal 0.70710677 -0.70710677 0
 outer loop
  vertex 3.4035535 3.0500002 0
  vertex 3.3328428 2.9792895 0.1
  vertex 3.3328428 2.9792895 0
 endloop
endfacet
facet normal -0 0 -1
 outer loop
  vertex 3.2621322 3.0500002 0
  vertex 3.3328428 3.1207108 0
  vertex 3.4035535 3.0500002 0
 endloop
endfacet
facet normal 0 0 -1
 outer loop
  vertex 3.2621322 3.0500002 0
  vertex 3.4035535 3.0500002 0
  vertex 3.3328428 2.9792895 0
 endloop
endfacet
facet normal 0 -0 1
 outer loop
  vertex 3.3328428 3.1207108 0.1
  vertex 3.2621322 3.0500002 0.1
  vertex 3.3328428 2.9792895 0.1
 endloop
endfacet
facet normal 0 -0 1
 outer loop
  vertex 3.3328428 3.1207108 0.1
  vertex 3.3328428 2.9792895 0.1
  vertex 3.4035535 3.0500002 0.1
 endloop
endfacet
facet normal -0.70710677 -0.70710677 -0
 outer loop
  vertex 2.9085789 3.1207108 0
  vertex 2.9085789 3.1207108 0.1
  vertex 2.8378682 3.1914215 0.1
 endloop
endfacet
facet normal -0.70710677 -0.70710677 0
 outer loop
  vertex 2.9085789 3.1207108 0
  vertex 2.8378682 3.1914215 0.1
  vertex 2.8378682 3.1914215 0
 endloop
endfacet
facet normal -0.70710677 0.70710677 0
 outer loop
  vertex 2.8378682 3.1914215 0
  vertex 2.8378682 3.1914215 0.1
  vertex 2.9085789 3.2621322 0.1
 endloop
endfacet
facet normal -0.70710677 0.70710677 0
 outer loop
  vertex 2.8378682 3.1914215 0
  vertex 2.9085789 3.2621322 0.1
  vertex 2.9085789 3.2621322 0
 endloop
endfacet
facet normal 0.70710677 0.70710677 0
 outer loop
  vertex 2.9085789 3.2621322 0
  vertex 2.9085789 3.2621322 0.1
  vertex 2.9792895 3.1914215 0.1
 endloop
endfacet
facet normal 0.70710677 0.70710677 -0
 outer loop
  vertex 2.9085789 3.2621322 0
  vertex 2.9792895 3.1914215 0.1
  vertex 2.9792895 3.1914215 0
 endloop
endfacet
facet normal 0.70710677 -0.70710677 0
 outer loop
  vertex 2.9792895 3.1914215 0
  vertex 2.9792895 3.1914215 0.1
  vertex 2.9085789 3.1207108 0.1
 endloop
endfacet
facet normal 0.70710677 -0.70710677 0
 outer loop
  vertex 2.9792895 3.1914215 0
  vertex 2.9085789 3.1207108 0.1
  vertex 2.9085789 3.1207108 0
 endloop
endfacet
facet normal -0 0 -1
 outer loop
  vertex 2.8378682 3.1914215 0
  vertex 2.9085789 3.2621322 0
  vertex 2.9792895 3.1914215 0
 endloop
endfacet
facet normal 0 0 -1
 outer loop
  vertex 2.8378682 3.1914215 0
  vertex 2.9792895 3.1914215 0
  vertex 2.9085789 3.1207108 0
 endloop
endfacet
facet normal 0 -0 1
 outer loop
  vertex 2.9085789 3.2621322 0.1
  vertex 2.8378682 3.1914215 0.1
  vertex 2.9085789 3.1207108 0.1
 endloop
endfacet
facet normal 0 -0 1
 outer loop
  vertex 2.9085789 3.2621322 0.1
  vertex 2.9085789 3.1207108 0.1
  vertex 2.9792895 3.1914215 0.1
 endloop
endfacet
facet normal -0.70710677 -0.70710677 -0
 outer loop
  vertex 3.1914215 2.8378682 0
  vertex 3.1914215 2.8378682 0.1
  vertex 3.1207108 2.9085789 0.1
 endloop
endfacet
facet normal -0.70710677 -0.70710677 0
 outer loop
  vertex 3.1914215 2.8378682 0
  vertex 3.1207108 2.9085789 0.1
  vertex 3.1207108 2.9085789 0
 endloop
endfacet
facet normal -0.70710677 0.70710677 0
 outer loop
  vertex 3.1207108 2.9085789 0
  vertex 3.1207108 2.9085789 0.1
  vertex 3.1914215 2.9792895 0.1
 endloop
endfacet
facet normal -0.70710677 0.70710677 0
 outer loop
  vertex 3.1207108 2.9085789 0
  vertex 3.1914215 2.9792895 0.1
  vertex 3.1914215 2.9792895 0
 endloop
endfacet
facet normal 0.70710677 0.70710677 0
 outer loop
  vertex 3.1914215 2.9792895 0
  vertex 3.1914215 2.9792895 0.1
  vertex 3.2621322 2.9085789 0.1
 endloop
endfacet
facet normal 0.70710677 0.70710677 -0
 outer loop
  vertex 3.1914215 2.9792895 0
  vertex 3.2621322 2.9085789 0.1
  vertex 3.2621322 2.9085789 0
 endloop
endfacet
facet normal 0.70710677 -0.70710677 0
 outer loop
  vertex 3.2621322 2.9085789 0
  vertex 3.2621322 2.9085789 0.1
  vertex 3.1914215 2.8378682 0.1
 endloop
endfacet
facet normal 0.70710677 -0.70710677 0
 outer loop
  vertex 3.2621322 2.9085789 0
  vertex 3.1914215 2.8378682 0.1
  vertex 3.1914215 2.8378682 0
 endloop
endfacet
facet normal -0 0 -1
 outer loop
  vertex 3.1207108 2.9085789 0
  vertex 3.1914215 2.9792895 0
  vertex 3.2621322 2.9085789 0
 endloop
endfacet
facet normal 0 0 -1
 outer loop
  vertex 3.1207108 2.9085789 0
  vertex 3.2621322 2.9085789 0
  vertex 3.1914215 2.8378682 0
 endloop
endfacet
facet normal 0 -0 1
 outer loop
  vertex 3.1914215 2.9792895 0.1
  vertex 3.1207108 2.9085789 0.1
  vertex 3.1914215 2.8378682 0.1
 endloop
endfacet
facet normal 0 -0 1
 outer loop
  vertex 3.1914215 2.9792895 0.1
  vertex 3.1914215 2.8378682 0.1
  vertex 3.2621322 2.9085789 0.1
 endloop
endfacet
facet normal -0.70710677 -0.70710677 -0
 outer loop
  vertex 3.0500002 2.696447 0
  vertex 3.0500002 2.696447 0.1
  vertex 2.9792895 2.7671576 0.1
 endloop
endfacet
facet normal -0.70710677 -0.70710677 0
 outer loop
  vertex 3.0500002 2.696447 0
  vertex 2.9792895 2.7671576 0.1
  vertex 2.9792895 2.7671576 0
 endloop
endfacet
facet normal -0.70710677 0.70710677 0
 outer loop
  vertex 2.9792895 2.7671576 0
  vertex 2.9792895 2.7671576 0.1
  vertex 3.0500002 2.8378682 0.1
 endloop
endfacet
facet normal -0.70710677 0.70710677 0
 outer loop
  vertex 2.9792895 2.7671576 0
  vertex 3.0500002 2.8378682 0.1
  vertex 3.0500002 2.8378682 0
 endloop
endfacet
facet normal 0.70710677 0.70710677 0
 outer loop
  vertex 3.0500002 2.8378682 0
  vertex 3.0500002 2.8378682 0.1
  vertex 3.1207108 2.7671576 0.1
 endloop
endfacet
facet normal 0.70710677 0.70710677 -0
 outer loop
  vertex 3.0500002 2.8378682 0
  vertex 3.1207108 2.7671576 0.1
  vertex 3.1207108 2.7671576 0
 endloop
endfacet
facet normal 0.70710677 -0.70710677 0
 outer loop
  vertex 3.1207108 2.7671576 0
  vertex 3.1207108 2.7671576 0.1
  vertex 3.0500002 2.696447 0.1
 endloop
endfacet
facet normal 0.70710677 -0.70710677 0
 outer loop
  vertex 3.1207108 2.7671576 0
  vertex 3.0500002 2.696447 0.1
  vertex 3.0500002 2.696447 0
 endloop
endfacet
facet normal -0 0 -1
 outer loop
  vertex 2.9792895 2.7671576 0
  vertex 3.0500002 2.8378682 0
  vertex 3.1207108 2.7671576 0
 endloop
endfacet
facet normal 0 0 -1
 outer loop
  vertex 2.9792895 2.7671576 0
  vertex 3.1207108 2.7671576 0
  vertex 3.0500002 2.696447 0
 endloop
endfacet
facet normal 0 -0 1
 outer loop
  vertex 3.0500002 2.8378682 0.1
  vertex 2.9792895 2.7671576 0.1
  vertex 3.0500002 2.696447 0.1
 endloop
endfacet
facet normal 0 -0 1
 outer loop
  vertex 3.0500002 2.8378682 0.1
  vertex 3.0500002 2.696447 0.1
  vertex 3.1207108 2.7671576 0.1
 endloop
endfacet
facet normal -0.70710677 -0.70710677 -0
 outer loop
  vertex 2.7671576 2.9792895 0
  vertex 2.7671576 2.9792895 0.1
  vertex 2.696447 3.0500002 0.1
 endloop
endfacet
facet normal -0.70710677 -0.70710677 0
 outer loop
  vertex 2.7671576 2.9792895 0
  vertex 2.696447 3.0500002 0.1
  vertex 2.696447 3.0500002 0
 endloop
endfacet
facet normal -0.70710677 0.70710677 0
 outer loop
  vertex 2.696447 3.0500002 0
  vertex 2.696447 3.0500002 0.1
  vertex 2.7671576 3.1207108 0.1
 endloop
endfacet
facet normal -0.70710677 0.70710677 0
 outer loop
  vertex 2.696447 3.0500002 0
  vertex 2.7671576 3.1207108 0.1
  vertex 2.7671576 3.1207108 0
 endloop
endfacet
facet normal 0.70710677 0.70710677 0
 outer loop
  vertex 2.7671576 3.1207108 0
  vertex 2.7671576 3.1207108 0.1
  vertex 2.8378682 3.0500002 0.1
 endloop
endfacet
facet normal 0.70710677 0.70710677 -0
 outer loop
  vertex 2.7671576 3.1207108 0
  vertex 2.8378682 3.0500002 0.1
  vertex 2.8378682 3.0500002 0
 endloop
endfacet
facet normal 0.70710677 -0.70710677 0
 outer loop
  vertex 2.8378682 3.0500002 0
  vertex 2.8378682 3.0500002 0.1
  vertex 2.7671576 2.9792895 0.1
 endloop
endfacet
facet normal 0.70710677 -0.70710677 0
 outer loop
  vertex 2.8378682 3.0500002 0
  vertex 2.7671576 2.9792895 0.1
  vertex 2.7671576 2.9792895 0
 endloop
endfacet
facet normal -0 0 -1
 outer loop
  vertex 2.696447 3.0500002 0
  vertex 2.7671576 3.1207108 0
  vertex 2.8378682 3.0500002 0
 endloop
endfacet
facet normal 0 0 -1
 outer loop
  vertex 2.696447 3.0500002 0
  vertex 2.8378682 3.0500002 0
  vertex 2.7671576 2.9792895 0
 endloop
endfacet
facet normal 0 -0 1
 outer loop
  vertex 2.7671576 3.1207108 0.1
  vertex 2.696447 3.0500002 0.1
  vertex 2.7671576 2.9792895 0.1
 endloop
endfacet
facet normal 0 -0 1
 outer loop
  vertex 2.7671576 3.1207108 0.1
  vertex 2.7671576 2.9792895 0.1
  vertex 2.8378682 3.0500002 0.1
 endloop
endfacet
endsolid 
