solid 
facet normal -0.86602604 -0.49999902 -0
 outer loop
  vertex 2.8584938 2.8816986 0
  vertex 2.8584938 2.8816986 0.1
  vertex 2.8084939 2.9683013 0.1
 endloop
endfacet
facet normal -0.86602604 -0.49999902 0
 outer loop
  vertex 2.8584938 2.8816986 0
  vertex 2.8084939 2.9683013 0.1
  vertex 2.8084939 2.9683013 0
 endloop
endfacet
facet normal -0.50000006 0.8660254 0
 outer loop
  vertex 2.8084939 2.9683013 0
  vertex 2.8084939 2.9683013 0.1
  vertex 2.8950963 3.0183012 0.1
 endloop
endfacet
facet normal -0.50000006 0.8660254 0
 outer loop
  vertex 2.8084939 2.9683013 0
  vertex 2.8950963 3.0183012 0.1
  vertex 2.8950963 3.0183012 0
 endloop
endfacet
facet normal 0.8660254 0.50000006 0
 outer loop
  vertex 2.8950963 3.0183012 0
  vertex 2.8950963 3.0183012 0.1
  vertex 2.9450963 2.9316988 0.1
 endloop
endfacet
facet normal 0.8660254 0.50000006 -0
 outer loop
  vertex 2.8950963 3.0183012 0
  vertex 2.9450963 2.9316988 0.1
  vertex 2.9450963 2.9316988 0
 endloop
endfacet
facet normal 0.5000018 -0.8660243 0
 outer loop
  vertex 2.9450963 2.9316988 0
  vertex 2.9450963 2.9316988 0.1
  vertex 2.8584938 2.8816986 0.1
 endloop
endfacet
facet normal 0.5000018 -0.8660243 0
 outer loop
  vertex 2.9450963 2.9316988 0
  vertex 2.8584938 2.8816986 0.1
  vertex 2.8584938 2.8816986 0
 endloop
endfacet
facet normal -0 0 -1
 outer loop
  vertex 2.8084939 2.9683013 0
  vertex 2.8950963 3.0183012 0
  vertex 2.9450963 2.9316988 0
 endloop
endfacet
facet normal 0 0 -1
 outer loop
  vertex 2.8084939 2.9683013 0
  vertex 2.9450963 2.9316988 0
  vertex 2.8584938 2.8816986 0
 endloop
endfacet
facet normal 0 -0 1
 outer loop
  vertex 2.8950963 3.0183012 0.1
  vertex 2.8084939 2.9683013 0.1
  vertex 2.8584938 2.8816986 0.1
 endloop
endfacet
facet normal 0 -0 1
 outer loop
  vertex 2.8950963 3.0183012 0.1
  vertex 2.8584938 2.8816986 0.1
  vertex 2.9450963 2.9316988 0.1
 endloop
endfacet
facet normal -0.866025 -0.5000008 -0
 outer loop
  vertex 3.204904 3.081699 0
  vertex 3.204904 3.081699 0.1
  vertex 3.154904 3.1683016 0.1
 endloop
endfacet
facet normal -0.866025 -0.5000008 0
 outer loop
  vertex 3.204904 3.081699 0
  vertex 3.154904 3.1683016 0.1
  vertex 3.154904 3.1683016 0
 endloop
endfacet
facet normal -0.49999902 0.86602604 0
 outer loop
  vertex 3.154904 3.1683016 0
  vertex 3.154904 3.1683016 0.1
  vertex 3.2415066 3.2183015 0.1
 endloop
endfacet
facet normal -0.49999902 0.86602604 0
 outer loop
  vertex 3.154904 3.1683016 0
  vertex 3.2415066 3.2183015 0.1
  vertex 3.2415066 3.2183015 0
 endloop
endfacet
facet normal 0.8660254 0.50000006 0
 outer loop
  vertex 3.2415066 3.2183015 0
  vertex 3.2415066 3.2183015 0.1
  vertex 3.2915065 3.131699 0.1
 endloop
endfacet
facet normal 0.8660254 0.50000006 -0
 outer loop
  vertex 3.2415066 3.2183015 0
  vertex 3.2915065 3.131699 0.1
  vertex 3.2915065 3.131699 0
 endloop
endfacet
facet normal 0.5000018 -0.8660243 0
 outer loop
  vertex 3.2915065 3.131699 0
  vertex 3.2915065 3.131699 0.1
  vertex 3.204904 3.081699 0.1
 endloop
endfacet
facet normal 0.5000018 -0.8660243 0
 outer loop
  vertex 3.2915065 3.131699 0
  vertex 3.204904 3.081699 0.1
  vertex 3.204904 3.081699 0
 endloop
endfacet
facet normal -0 0 -1
 outer loop
  vertex 3.154904 3.1683016 0
  vertex 3.2415066 3.2183015 0
  vertex 3.2915065 3.131699 0
 endloop
endfacet
facet normal 0 0 -1
 outer loop
  vertex 3.154904 3.1683016 0
  vertex 3.2915065 3.131699 0
  vertex 3.204904 3.081699 0
 endloop
endfacet
facet normal 0 -0 1
 outer loop
  vertex 3.2415066 3.2183015 0.1
  vertex 3.154904 3.1683016 0.1
  vertex 3.204904 3.081699 0.1
 endloop
endfacet
facet normal 0 -0 1
 outer loop
  vertex 3.2415066 3.2183015 0.1
  vertex 3.204904 3.081699 0.1
  vertex 3.2915065 3.131699 0.1
 endloop
endfacet
facet normal -0.8660254 -0.50000006 -0
 outer loop
  vertex 3.104904 3.254904 0
  vertex 3.104904 3.254904 0.1
  vertex 3.054904 3.3415065 0.1
 endloop
endfacet
facet normal -0.8660254 -0.50000006 0
 outer loop
  vertex 3.104904 3.254904 0
  vertex 3.054904 3.3415065 0.1
  vertex 3.054904 3.3415065 0
 endloop
endfacet
facet normal -0.5000018 0.8660243 0
 outer loop
  vertex 3.054904 3.3415065 0
  vertex 3.054904 3.3415065 0.1
  vertex 3.1415064 3.3915067 0.1
 endloop
endfacet
facet normal -0.5000018 0.8660243 0
 outer loop
  vertex 3.054904 3.3415065 0
  vertex 3.1415064 3.3915067 0.1
  vertex 3.1415064 3.3915067 0
 endloop
endfacet
facet normal 0.866025 0.5000008 0
 outer loop
  vertex 3.1415064 3.3915067 0
  vertex 3.1415064 3.3915067 0.1
  vertex 3.1915066 3.304904 0.1
 endloop
endfacet
facet normal 0.866025 0.5000008 -0
 outer loop
  vertex 3.1415064 3.3915067 0
  vertex 3.1915066 3.304904 0.1
  vertex 3.1915066 3.304904 0
 endloop
endfacet
facet normal 0.49999902 -0.86602604 0
 outer loop
  vertex 3.1915066 3.304904 0
  vertex 3.1915066 3.304904 0.1
  vertex 3.104904 3.254904 0.1
 endloop
endfacet
facet normal 0.49999902 -0.86602604 0
 outer loop
  vertex 3.1915066 3.304904 0
  vertex 3.104904 3.254904 0.1
  vertex 3.104904 3.254904 0
 endloop
endfacet
facet normal -0 0 -1
 outer loop
  vertex 3.054904 3.3415065 0
  vertex 3.1415064 3.3915067 0
  vertex 3.1915066 3.304904 0
 endloop
endfacet
facet normal 0 0 -1
 outer loop
  vertex 3.054904 3.3415065 0
  vertex 3.1915066 3.304904 0
  vertex 3.104904 3.254904 0
 endloop
endfacet
facet normal 0 -0 1
 outer loop
  vertex 3.1415064 3.3915067 0.1
  vertex 3.054904 3.3415065 0.1
  vertex 3.104904 3.254904 0.1
 endloop
endfacet
facet normal 0 -0 1
 outer loop
  vertex 3.1415064 3.3915067 0.1
  vertex 3.104904 3.254904 0.1
  vertex 3.1915066 3.304904 0.1
 endloop
endfacet
facet normal -0.8660254 -0.50000006 -0
 outer loop
  vertex 3.304904 2.908494 0
  vertex 3.304904 2.908494 0.1
  vertex 3.254904 2.9950964 0.1
 endloop
endfacet
facet normal -0.8660254 -0.50000006 0
 outer loop
  vertex 3.304904 2.908494 0
  vertex 3.254904 2.9950964 0.1
  vertex 3.254904 2.9950964 0
 endloop
endfacet
facet normal -0.50000006 0.8660254 0
 outer loop
  vertex 3.254904 2.9950964 0
  vertex 3.254904 2.9950964 0.1
  vertex 3.3415065 3.0450964 0.1
 endloop
endfacet
facet normal -0.50000006 0.8660254 0
 outer loop
  vertex 3.254904 2.9950964 0
  vertex 3.3415065 3.0450964 0.1
  vertex 3.3415065 3.0450964 0
 endloop
endfacet
facet normal 0.8660243 0.5000018 0
 outer loop
  vertex 3.3415065 3.0450964 0
  vertex 3.3415065 3.0450964 0.1
  vertex 3.3915067 2.958494 0.1
 endloop
endfacet
facet normal 0.8660243 0.5000018 -0
 outer loop
  vertex 3.3415065 3.0450964 0
  vertex 3.3915067 2.958494 0.1
  vertex 3.3915067 2.958494 0
 endloop
endfacet
facet normal 0.49999902 -0.86602604 0
 outer loop
  vertex 3.3915067 2.958494 0
  vertex 3.3915067 2.958494 0.1
  vertex 3.304904 2.908494 0.1
 endloop
endfacet
facet normal 0.49999902 -0.86602604 0
 outer loop
  vertex 3.3915067 2.958494 0
  vertex 3.304904 2.908494 0.1
  vertex 3.304904 2.908494 0
 endloop
endfacet
facet normal -0 0 -1
 outer loop
  vertex 3.254904 2.9950964 0
  vertex 3.3415065 3.0450964 0
  vertex 3.3915067 2.958494 0
 endloop
endfacet
facet normal 0 0 -1
 outer loop
  vertex 3.254904 2.9950964 0
  vertex 3.3915067 2.958494 0
  vertex 3.304904 2.908494 0
 endloop
endfacet
facet normal 0 -0 1
 outer loop
  vertex 3.3415065 3.0450964 0.1
  vertex 3.254904 2.9950964 0.1
  vertex 3.304904 2.908494 0.1
 endloop
endfacet
facet normal 0 -0 1
 outer loop
  vertex 3.3415065 3.0450964 0.1
  vertex 3.304904 2.908494 0.1
  vertex 3.3915067 2.958494 0.1
 endloop
endfacet
facet normal -0.8660243 -0.5000018 -0
 outer loop
  vertex 2.931699 3.1549041 0
  vertex 2.931699 3.1549041 0.1
  vertex 2.8816988 3.2415066 0.1
 endloop
endfacet
facet normal -0.8660243 -0.5000018 0
 outer loop
  vertex 2.931699 3.1549041 0
  vertex 2.8816988 3.2415066 0.1
  vertex 2.8816988 3.2415066 0
 endloop
endfacet
facet normal -0.49999902 0.86602604 0
 outer loop
  vertex 2.8816988 3.2415066 0
  vertex 2.8816988 3.2415066 0.1
  vertex 2.9683015 3.2915065 0.1
 endloop
endfacet
facet normal -0.49999902 0.86602604 0
 outer loop
  vertex 2.8816988 3.2415066 0
  vertex 2.9683015 3.2915065 0.1
  vertex 2.9683015 3.2915065 0
 endloop
endfacet
facet normal 0.8660254 0.50000006 0
 outer loop
  vertex 2.9683015 3.2915065 0
  vertex 2.9683015 3.2915065 0.1
  vertex 3.0183015 3.204904 0.1
 endloop
endfacet
facet normal 0.8660254 0.50000006 -0
 outer loop
  vertex 2.9683015 3.2915065 0
  vertex 3.0183015 3.204904 0.1
  vertex 3.0183015 3.204904 0
 endloop
endfacet
facet normal 0.50000006 -0.8660254 0
 outer loop
  vertex 3.0183015 3.204904 0
  vertex 3.0183015 3.204904 0.1
  vertex 2.931699 3.1549041 0.1
 endloop
endfacet
facet normal 0.50000006 -0.8660254 0
 outer loop
  vertex 3.0183015 3.204904 0
  vertex 2.931699 3.1549041 0.1
  vertex 2.931699 3.1549041 0
 endloop
endfacet
facet normal -0 0 -1
 outer loop
  vertex 2.8816988 3.2415066 0
  vertex 2.9683015 3.2915065 0
  vertex 3.0183015 3.204904 0
 endloop
endfacet
facet normal 0 0 -1
 outer loop
  vertex 2.8816988 3.2415066 0
  vertex 3.0183015 3.204904 0
  vertex 2.931699 3.1549041 0
 endloop
endfacet
facet normal 0 -0 1
 outer loop
  vertex 2.9683015 3.2915065 0.1
  vertex 2.8816988 3.2415066 0.1
  vertex 2.931699 3.1549041 0.1
 endloop
endfacet
facet normal 0 -0 1
 outer loop
  vertex 2.9683015 3.2915065 0.1
  vertex 2.931699 3.1549041 0.1
  vertex 3.0183015 3.204904 0.1
 endloop
endfacet
facet normal -0.8660254 -0.50000006 -0
 outer loop
  vertex 3.1316988 2.8084939 0
  vertex 3.1316988 2.8084939 0.1
  vertex 3.081699 2.8950963 0.1
 endloop
endfacet
facet normal -0.8660254 -0.50000006 0
 outer loop
  vertex 3.1316988 2.8084939 0
  vertex 3.081699 2.8950963 0.1
  vertex 3.081699 2.8950963 0
 endloop
endfacet
facet normal -0.5000008 0.866025 0
 outer loop
  vertex 3.081699 2.8950963 0
  vertex 3.081699 2.8950963 0.1
  vertex 3.1683016 2.9450965 0.1
 endloop
endfacet
facet normal -0.5000008 0.866025 0
 outer loop
  vertex 3.081699 2.8950963 0
  vertex 3.1683016 2.9450965 0.1
  vertex 3.1683016 2.9450965 0
 endloop
endfacet
facet normal 0.86602604 0.49999902 0
 outer loop
  vertex 3.1683016 2.9450965 0
  vertex 3.1683016 2.9450965 0.1
  vertex 3.2183015 2.8584938 0.1
 endloop
endfacet
facet normal 0.86602604 0.49999902 -0
 outer loop
  vertex 3.1683016 2.9450965 0
  vertex 3.2183015 2.8584938 0.1
  vertex 3.2183015 2.8584938 0
 endloop
endfacet
facet normal 0.49999902 -0.86602604 0
 outer loop
  vertex 3.2183015 2.8584938 0
  vertex 3.2183015 2.8584938 0.1
  vertex 3.1316988 2.8084939 0.1
 endloop
endfacet
facet normal 0.49999902 -0.86602604 0
 outer loop
  vertex 3.2183015 2.8584938 0
  vertex 3.1316988 2.8084939 0.1
  vertex 3.1316988 2.8084939 0
 endloop
endfacet
facet normal -0 0 -1
 outer loop
  vertex 3.081699 2.8950963 0
  vertex 3.1683016 2.9450965 0
  vertex 3.2183015 2.8584938 0
 endloop
endfacet
facet normal 0 0 -1
 outer loop
  vertex 3.081699 2.8950963 0
  vertex 3.2183015 2.8584938 0
  vertex 3.1316988 2.8084939 0
 endloop
endfacet
facet normal 0 -0 1
 outer loop
  vertex 3.1683016 2.9450965 0.1
  vertex 3.081699 2.8950963 0.1
  vertex 3.1316988 2.8084939 0.1
 endloop
endfacet
facet normal 0 -0 1
 outer loop
  vertex 3.1683016 2.9450965 0.1
  vertex 3.1316988 2.8084939 0.1
  vertex 3.2183015 2.8584938 0.1
 endloop
endfacet
facet normal -0.8660243 -0.5000018 -0
 outer loop
  vertex 2.958494 2.708494 0
  vertex 2.958494 2.708494 0.1
  vertex 2.9084938 2.7950964 0.1
 endloop
endfacet
facet normal -0.8660243 -0.5000018 0
 outer loop
  vertex 2.958494 2.708494 0
  vertex 2.9084938 2.7950964 0.1
  vertex 2.9084938 2.7950964 0
 endloop
endfacet
facet normal -0.49999902 0.86602604 0
 outer loop
  vertex 2.9084938 2.7950964 0
  vertex 2.9084938 2.7950964 0.1
  vertex 2.9950964 2.8450963 0.1
 endloop
endfacet
facet normal -0.49999902 0.86602604 0
 outer loop
  vertex 2.9084938 2.7950964 0
  vertex 2.9950964 2.8450963 0.1
  vertex 2.9950964 2.8450963 0
 endloop
endfacet
facet normal 0.8660254 0.50000006 0
 outer loop
  vertex 2.9950964 2.8450963 0
  vertex 2.9950964 2.8450963 0.1
  vertex 3.0450964 2.758494 0.1
 endloop
endfacet
facet normal 0.8660254 0.50000006 -0
 outer loop
  vertex 2.9950964 2.8450963 0
  vertex 3.0450964 2.758494 0.1
  vertex 3.0450964 2.758494 0
 endloop
endfacet
facet normal 0.50000006 -0.8660254 0
 outer loop
  vertex 3.0450964 2.758494 0
  vertex 3.0450964 2.758494 0.1
  vertex 2.958494 2.708494 0.1
 endloop
endfacet
facet normal 0.50000006 -0.8660254 0
 outer loop
  vertex 3.0450964 2.758494 0
  vertex 2.958494 2.708494 0.1
  vertex 2.958494 2.708494 0
 endloop
endfacet
facet normal -0 0 -1
 outer loop
  vertex 2.9084938 2.7950964 0
  vertex 2.9950964 2.8450963 0
  vertex 3.0450964 2.758494 0
 endloop
endfacet
facet normal 0 0 -1
 outer loop
  vertex 2.9084938 2.7950964 0
  vertex 3.0450964 2.758494 0
  vertex 2.958494 2.708494 0
 endloop
endfacet
facet normal 0 -0 1
 outer loop
  vertex 2.9950964 2.8450963 0.1
  vertex 2.9084938 2.7950964 0.1
  vertex 2.958494 2.708494 0.1
 endloop
endfacet
facet normal 0 -0 1
 outer loop
  vertex 2.9950964 2.8450963 0.1
  vertex 2.958494 2.708494 0.1
  vertex 3.0450964 2.758494 0.1
 endloop
endfacet
facet normal -0.866025 -0.5000008 -0
 outer loop
  vertex 2.758494 3.054904 0
  vertex 2.758494 3.054904 0.1
  vertex 2.7084937 3.1415067 0.1
 endloop
endfacet
facet normal -0.866025 -0.5000008 0
 outer loop
  vertex 2.758494 3.054904 0
  vertex 2.7084937 3.1415067 0.1
  vertex 2.7084937 3.1415067 0
 endloop
endfacet
facet normal -0.49999902 0.86602604 0
 outer loop
  vertex 2.7084937 3.1415067 0
  vertex 2.7084937 3.1415067 0.1
  vertex 2.7950964 3.1915066 0.1
 endloop
endfacet
facet normal -0.49999902 0.86602604 0
 outer loop
  vertex 2.7084937 3.1415067 0
  vertex 2.7950964 3.1915066 0.1
  vertex 2.7950964 3.1915066 0
 endloop
endfacet
facet normal 0.86602604 0.49999902 0
 outer loop
  vertex 2.7950964 3.1915066 0
  vertex 2.7950964 3.1915066 0.1
  vertex 2.8450963 3.104904 0.1
 endloop
endfacet
facet normal 0.86602604 0.49999902 -0
 outer loop
  vertex 2.7950964 3.1915066 0
  vertex 2.8450963 3.104904 0.1
  vertex 2.8450963 3.104904 0
 endloop
endfacet
facet normal 0.50000006 -0.8660254 0
 outer loop
  vertex 2.8450963 3.104904 0
  vertex 2.8450963 3.104904 0.1
  vertex 2.758494 3.054904 0.1
 endloop
endfacet
facet normal 0.50000006 -0.8660254 0
 outer loop
  vertex 2.8450963 3.104904 0
  vertex 2.758494 3.054904 0.1
  vertex 2.758494 3.054904 0
 endloop
endfacet
facet normal -0 0 -1
 outer loop
  vertex 2.7084937 3.1415067 0
  vertex 2.7950964 3.1915066 0
  vertex 2.8450963 3.104904 0
 endloop
endfacet
facet normal 0 0 -1
 outer loop
  vertex 2.7084937 3.1415067 0
  vertex 2.8450963 3.104904 0
  vertex 2.758494 3.054904 0
 endloop
endfacet
facet normal 0 -0 1
 outer loop
  vertex 2.7950964 3.1915066 0.1
  vertex 2.7084937 3.1415067 0.1
  vertex 2.758494 3.054904 0.1
 endloop
endfacet
facet normal 0 -0 1
 outer loop
  vertex 2.7950964 3.1915066 0.1
  vertex 2.758494 3.054904 0.1
  vertex 2.8450963 3.104904 0.1
 endloop
endfacet
endsolid 
