solid 
facet normal 0 -0 1
 outer loop
  vertex 3.05 3.1207106 0.6
  vertex 2.9792893 3.05 0.6
  vertex 3.05 2.9792893 0.6
 endloop
endfacet
facet normal 0 -0 1
 outer loop
  vertex 3.05 3.1207106 0.6
  vertex 3.05 2.9792893 0.6
  vertex 3.1207106 3.05 0.6
 endloop
endfacet
facet normal 0.70710677 -0.70710677 0
 outer loop
  vertex 3.1207106 3.05 0
  vertex 3.1207106 3.05 0.6
  vertex 3.05 2.9792893 0.6
 endloop
endfacet
facet normal 0.70710677 -0.70710677 0
 outer loop
  vertex 3.1207106 3.05 0
  vertex 3.05 2.9792893 0.6
  vertex 3.05 2.9792893 0
 endloop
endfacet
facet normal -0.70710677 -0.70710677 -0
 outer loop
  vertex 3.05 2.9792893 0
  vertex 3.05 2.9792893 0.6
  vertex 2.9792893 3.05 0.6
 endloop
endfacet
facet normal -0.70710677 -0.70710677 0
 outer loop
  vertex 3.05 2.9792893 0
  vertex 2.9792893 3.05 0.6
  vertex 2.9792893 3.05 0
 endloop
endfacet
facet normal -0 0 -1
 outer loop
  vertex 2.9792893 3.05 0
  vertex 3.05 3.1207106 0
  vertex 3.1207106 3.05 0
 endloop
endfacet
facet normal 0 0 -1
 outer loop
  vertex 2.9792893 3.05 0
  vertex 3.1207106 3.05 0
  vertex 3.05 2.9792893 0
 endloop
endfacet
facet normal 0.70710677 0.70710677 0
 outer loop
  vertex 3.05 3.1207106 0
  vertex 3.05 3.1207106 0.6
  vertex 3.1207106 3.05 0.6
 endloop
endfacet
facet normal 0.70710677 0.70710677 -0
 outer loop
  vertex 3.05 3.1207106 0
  vertex 3.1207106 3.05 0.6
  vertex 3.1207106 3.05 0
 endloop
endfacet
facet normal -0.70710677 0.70710677 0
 outer loop
  vertex 2.9792893 3.05 0
  vertex 2.9792893 3.05 0.6
  vertex 3.05 3.1207106 0.6
 endloop
endfacet
facet normal -0.70710677 0.70710677 0
 outer loop
  vertex 2.9792893 3.05 0
  vertex 3.05 3.1207106 0.6
  vertex 3.05 3.1207106 0
 endloop
endfacet
endsolid 
