solid 
facet normal 0 -0 1
 outer loop
  vertex 3.0683012 3.1183012 0.6
  vertex 2.9816988 3.0683012 0.6
  vertex 3.0316987 2.9816988 0.6
 endloop
endfacet
facet normal 0 -0 1
 outer loop
  vertex 3.0683012 3.1183012 0.6
  vertex 3.0316987 2.9816988 0.6
  vertex 3.1183012 3.0316987 0.6
 endloop
endfacet
facet normal 0.50000006 -0.8660253 0
 outer loop
  vertex 3.1183012 3.0316987 0
  vertex 3.1183012 3.0316987 0.6
  vertex 3.0316987 2.9816988 0.6
 endloop
endfacet
facet normal 0.50000006 -0.8660253 0
 outer loop
  vertex 3.1183012 3.0316987 0
  vertex 3.0316987 2.9816988 0.6
  vertex 3.0316987 2.9816988 0
 endloop
endfacet
facet normal -0.8660253 -0.50000006 -0
 outer loop
  vertex 3.0316987 2.9816988 0
  vertex 3.0316987 2.9816988 0.6
  vertex 2.9816988 3.0683012 0.6
 endloop
endfacet
facet normal -0.8660253 -0.50000006 0
 outer loop
  vertex 3.0316987 2.9816988 0
  vertex 2.9816988 3.0683012 0.6
  vertex 2.9816988 3.0683012 0
 endloop
endfacet
facet normal -0 0 -1
 outer loop
  vertex 2.9816988 3.0683012 0
  vertex 3.0683012 3.1183012 0
  vertex 3.1183012 3.0316987 0
 endloop
endfacet
facet normal 0 0 -1
 outer loop
  vertex 2.9816988 3.0683012 0
  vertex 3.1183012 3.0316987 0
  vertex 3.0316987 2.9816988 0
 endloop
endfacet
facet normal 0.8660253 0.50000006 0
 outer loop
  vertex 3.0683012 3.1183012 0
  vertex 3.0683012 3.1183012 0.6
  vertex 3.1183012 3.0316987 0.6
 endloop
endfacet
facet normal 0.8660253 0.50000006 -0
 outer loop
  vertex 3.0683012 3.1183012 0
  vertex 3.1183012 3.0316987 0.6
  vertex 3.1183012 3.0316987 0
 endloop
endfacet
facet normal -0.50000006 0.8660253 0
 outer loop
  vertex 2.9816988 3.0683012 0
  vertex 2.9816988 3.0683012 0.6
  vertex 3.0683012 3.1183012 0.6
 endloop
endfacet
facet normal -0.50000006 0.8660253 0
 outer loop
  vertex 2.9816988 3.0683012 0
  vertex 3.0683012 3.1183012 0.6
  vertex 3.0683012 3.1183012 0
 endloop
endfacet
endsolid 
