solid 
facet normal -0.70710677 -0.70710677 -0
 outer loop
  vertex 2.9085786 2.8378677 0
  vertex 2.9085786 2.8378677 0.2
  vertex 2.8378677 2.9085786 0.2
 endloop
endfacet
facet normal -0.70710677 -0.70710677 0
 outer loop
  vertex 2.9085786 2.8378677 0
  vertex 2.8378677 2.9085786 0.2
  vertex 2.8378677 2.9085786 0
 endloop
endfacet
facet normal -0.7071056 0.70710796 0
 outer loop
  vertex 2.8378677 2.9085786 0
  vertex 2.8378677 2.9085786 0.2
  vertex 2.9085786 2.9792893 0.2
 endloop
endfacet
facet normal -0.7071056 0.70710796 0
 outer loop
  vertex 2.8378677 2.9085786 0
  vertex 2.9085786 2.9792893 0.2
  vertex 2.9085786 2.9792893 0
 endloop
endfacet
facet normal 0.7071056 0.70710796 0
 outer loop
  vertex 2.9085786 2.9792893 0
  vertex 2.9085786 2.9792893 0.2
  vertex 2.9792895 2.9085786 0.2
 endloop
endfacet
facet normal 0.7071056 0.70710796 -0
 outer loop
  vertex 2.9085786 2.9792893 0
  vertex 2.9792895 2.9085786 0.2
  vertex 2.9792895 2.9085786 0
 endloop
endfacet
facet normal 0.70710677 -0.70710677 0
 outer loop
  vertex 2.9792895 2.9085786 0
  vertex 2.9792895 2.9085786 0.2
  vertex 2.9085786 2.8378677 0.2
 endloop
endfacet
facet normal 0.70710677 -0.70710677 0
 outer loop
  vertex 2.9792895 2.9085786 0
  vertex 2.9085786 2.8378677 0.2
  vertex 2.9085786 2.8378677 0
 endloop
endfacet
facet normal -0 0 -1
 outer loop
  vertex 2.8378677 2.9085786 0
  vertex 2.9085786 2.9792893 0
  vertex 2.9792895 2.9085786 0
 endloop
endfacet
facet normal 0 0 -1
 outer loop
  vertex 2.8378677 2.9085786 0
  vertex 2.9792895 2.9085786 0
  vertex 2.9085786 2.8378677 0
 endloop
endfacet
facet normal 0 -0 1
 outer loop
  vertex 2.9085786 2.9792893 0.2
  vertex 2.8378677 2.9085786 0.2
  vertex 2.9085786 2.8378677 0.2
 endloop
endfacet
facet normal 0 -0 1
 outer loop
  vertex 2.9085786 2.9792893 0.2
  vertex 2.9085786 2.8378677 0.2
  vertex 2.9792895 2.9085786 0.2
 endloop
endfacet
facet normal -0.70710677 -0.70710677 -0
 outer loop
  vertex 3.1914215 3.1207108 0
  vertex 3.1914215 3.1207108 0.2
  vertex 3.1207108 3.1914215 0.2
 endloop
endfacet
facet normal -0.70710677 -0.70710677 0
 outer loop
  vertex 3.1914215 3.1207108 0
  vertex 3.1207108 3.1914215 0.2
  vertex 3.1207108 3.1914215 0
 endloop
endfacet
facet normal -0.70710677 0.70710677 0
 outer loop
  vertex 3.1207108 3.1914215 0
  vertex 3.1207108 3.1914215 0.2
  vertex 3.1914215 3.2621322 0.2
 endloop
endfacet
facet normal -0.70710677 0.70710677 0
 outer loop
  vertex 3.1207108 3.1914215 0
  vertex 3.1914215 3.2621322 0.2
  vertex 3.1914215 3.2621322 0
 endloop
endfacet
facet normal 0.707108 0.7071056 0
 outer loop
  vertex 3.1914215 3.2621322 0
  vertex 3.1914215 3.2621322 0.2
  vertex 3.262132 3.1914215 0.2
 endloop
endfacet
facet normal 0.707108 0.7071056 -0
 outer loop
  vertex 3.1914215 3.2621322 0
  vertex 3.262132 3.1914215 0.2
  vertex 3.262132 3.1914215 0
 endloop
endfacet
facet normal 0.707108 -0.7071056 0
 outer loop
  vertex 3.262132 3.1914215 0
  vertex 3.262132 3.1914215 0.2
  vertex 3.1914215 3.1207108 0.2
 endloop
endfacet
facet normal 0.707108 -0.7071056 0
 outer loop
  vertex 3.262132 3.1914215 0
  vertex 3.1914215 3.1207108 0.2
  vertex 3.1914215 3.1207108 0
 endloop
endfacet
facet normal -0 0 -1
 outer loop
  vertex 3.1207108 3.1914215 0
  vertex 3.1914215 3.2621322 0
  vertex 3.262132 3.1914215 0
 endloop
endfacet
facet normal 0 0 -1
 outer loop
  vertex 3.1207108 3.1914215 0
  vertex 3.262132 3.1914215 0
  vertex 3.1914215 3.1207108 0
 endloop
endfacet
facet normal 0 -0 1
 outer loop
  vertex 3.1914215 3.2621322 0.2
  vertex 3.1207108 3.1914215 0.2
  vertex 3.1914215 3.1207108 0.2
 endloop
endfacet
facet normal 0 -0 1
 outer loop
  vertex 3.1914215 3.2621322 0.2
  vertex 3.1914215 3.1207108 0.2
  vertex 3.262132 3.1914215 0.2
 endloop
endfacet
facet normal -0.707108 -0.7071056 -0
 outer loop
  vertex 3.05 3.2621322 0
  vertex 3.05 3.2621322 0.2
  vertex 2.9792895 3.3328428 0.2
 endloop
endfacet
facet normal -0.707108 -0.7071056 0
 outer loop
  vertex 3.05 3.2621322 0
  vertex 2.9792895 3.3328428 0.2
  vertex 2.9792895 3.3328428 0
 endloop
endfacet
facet normal -0.707108 0.7071056 0
 outer loop
  vertex 2.9792895 3.3328428 0
  vertex 2.9792895 3.3328428 0.2
  vertex 3.05 3.4035535 0.2
 endloop
endfacet
facet normal -0.707108 0.7071056 0
 outer loop
  vertex 2.9792895 3.3328428 0
  vertex 3.05 3.4035535 0.2
  vertex 3.05 3.4035535 0
 endloop
endfacet
facet normal 0.70710677 0.70710677 0
 outer loop
  vertex 3.05 3.4035535 0
  vertex 3.05 3.4035535 0.2
  vertex 3.1207106 3.3328428 0.2
 endloop
endfacet
facet normal 0.70710677 0.70710677 -0
 outer loop
  vertex 3.05 3.4035535 0
  vertex 3.1207106 3.3328428 0.2
  vertex 3.1207106 3.3328428 0
 endloop
endfacet
facet normal 0.70710677 -0.70710677 0
 outer loop
  vertex 3.1207106 3.3328428 0
  vertex 3.1207106 3.3328428 0.2
  vertex 3.05 3.2621322 0.2
 endloop
endfacet
facet normal 0.70710677 -0.70710677 0
 outer loop
  vertex 3.1207106 3.3328428 0
  vertex 3.05 3.2621322 0.2
  vertex 3.05 3.2621322 0
 endloop
endfacet
facet normal -0 0 -1
 outer loop
  vertex 2.9792895 3.3328428 0
  vertex 3.05 3.4035535 0
  vertex 3.1207106 3.3328428 0
 endloop
endfacet
facet normal 0 0 -1
 outer loop
  vertex 2.9792895 3.3328428 0
  vertex 3.1207106 3.3328428 0
  vertex 3.05 3.2621322 0
 endloop
endfacet
facet normal 0 -0 1
 outer loop
  vertex 3.05 3.4035535 0.2
  vertex 2.9792895 3.3328428 0.2
  vertex 3.05 3.2621322 0.2
 endloop
endfacet
facet normal 0 -0 1
 outer loop
  vertex 3.05 3.4035535 0.2
  vertex 3.05 3.2621322 0.2
  vertex 3.1207106 3.3328428 0.2
 endloop
endfacet
facet normal -0.7071056 -0.70710796 -0
 outer loop
  vertex 3.3328428 2.9792895 0
  vertex 3.3328428 2.9792895 0.2
  vertex 3.262132 3.0500002 0.2
 endloop
endfacet
facet normal -0.7071056 -0.70710796 0
 outer loop
  vertex 3.3328428 2.9792895 0
  vertex 3.262132 3.0500002 0.2
  vertex 3.262132 3.0500002 0
 endloop
endfacet
facet normal -0.70710677 0.70710677 0
 outer loop
  vertex 3.262132 3.0500002 0
  vertex 3.262132 3.0500002 0.2
  vertex 3.3328426 3.1207108 0.2
 endloop
endfacet
facet normal -0.70710677 0.70710677 0
 outer loop
  vertex 3.262132 3.0500002 0
  vertex 3.3328426 3.1207108 0.2
  vertex 3.3328426 3.1207108 0
 endloop
endfacet
facet normal 0.7071056 0.70710796 0
 outer loop
  vertex 3.3328426 3.1207108 0
  vertex 3.3328426 3.1207108 0.2
  vertex 3.4035535 3.0500002 0.2
 endloop
endfacet
facet normal 0.7071056 0.70710796 -0
 outer loop
  vertex 3.3328426 3.1207108 0
  vertex 3.4035535 3.0500002 0.2
  vertex 3.4035535 3.0500002 0
 endloop
endfacet
facet normal 0.70710677 -0.70710677 0
 outer loop
  vertex 3.4035535 3.0500002 0
  vertex 3.4035535 3.0500002 0.2
  vertex 3.3328428 2.9792895 0.2
 endloop
endfacet
facet normal 0.70710677 -0.70710677 0
 outer loop
  vertex 3.4035535 3.0500002 0
  vertex 3.3328428 2.9792895 0.2
  vertex 3.3328428 2.9792895 0
 endloop
endfacet
facet normal -0 0 -1
 outer loop
  vertex 3.262132 3.0500002 0
  vertex 3.3328426 3.1207108 0
  vertex 3.4035535 3.0500002 0
 endloop
endfacet
facet normal 0 0 -1
 outer loop
  vertex 3.262132 3.0500002 0
  vertex 3.4035535 3.0500002 0
  vertex 3.3328428 2.9792895 0
 endloop
endfacet
facet normal 0 -0 1
 outer loop
  vertex 3.3328426 3.1207108 0.2
  vertex 3.262132 3.0500002 0.2
  vertex 3.3328428 2.9792895 0.2
 endloop
endfacet
facet normal 0 0 1
 outer loop
  vertex 3.3328426 3.1207108 0.2
  vertex 3.3328428 2.9792895 0.2
  vertex 3.4035535 3.0500002 0.2
 endloop
endfacet
facet normal -0.70710677 -0.70710677 -0
 outer loop
  vertex 2.9085786 3.1207108 0
  vertex 2.9085786 3.1207108 0.2
  vertex 2.837868 3.1914215 0.2
 endloop
endfacet
facet normal -0.70710677 -0.70710677 0
 outer loop
  vertex 2.9085786 3.1207108 0
  vertex 2.837868 3.1914215 0.2
  vertex 2.837868 3.1914215 0
 endloop
endfacet
facet normal -0.70710677 0.70710677 0
 outer loop
  vertex 2.837868 3.1914215 0
  vertex 2.837868 3.1914215 0.2
  vertex 2.9085786 3.2621322 0.2
 endloop
endfacet
facet normal -0.70710677 0.70710677 0
 outer loop
  vertex 2.837868 3.1914215 0
  vertex 2.9085786 3.2621322 0.2
  vertex 2.9085786 3.2621322 0
 endloop
endfacet
facet normal 0.70710677 0.70710677 0
 outer loop
  vertex 2.9085786 3.2621322 0
  vertex 2.9085786 3.2621322 0.2
  vertex 2.9792893 3.1914215 0.2
 endloop
endfacet
facet normal 0.70710677 0.70710677 -0
 outer loop
  vertex 2.9085786 3.2621322 0
  vertex 2.9792893 3.1914215 0.2
  vertex 2.9792893 3.1914215 0
 endloop
endfacet
facet normal 0.70710677 -0.70710677 0
 outer loop
  vertex 2.9792893 3.1914215 0
  vertex 2.9792893 3.1914215 0.2
  vertex 2.9085786 3.1207108 0.2
 endloop
endfacet
facet normal 0.70710677 -0.70710677 0
 outer loop
  vertex 2.9792893 3.1914215 0
  vertex 2.9085786 3.1207108 0.2
  vertex 2.9085786 3.1207108 0
 endloop
endfacet
facet normal -0 0 -1
 outer loop
  vertex 2.837868 3.1914215 0
  vertex 2.9085786 3.2621322 0
  vertex 2.9792893 3.1914215 0
 endloop
endfacet
facet normal 0 0 -1
 outer loop
  vertex 2.837868 3.1914215 0
  vertex 2.9792893 3.1914215 0
  vertex 2.9085786 3.1207108 0
 endloop
endfacet
facet normal 0 -0 1
 outer loop
  vertex 2.9085786 3.2621322 0.2
  vertex 2.837868 3.1914215 0.2
  vertex 2.9085786 3.1207108 0.2
 endloop
endfacet
facet normal 0 -0 1
 outer loop
  vertex 2.9085786 3.2621322 0.2
  vertex 2.9085786 3.1207108 0.2
  vertex 2.9792893 3.1914215 0.2
 endloop
endfacet
facet normal -0.7071056 -0.70710796 -0
 outer loop
  vertex 3.1914215 2.8378682 0
  vertex 3.1914215 2.8378682 0.2
  vertex 3.1207106 2.9085789 0.2
 endloop
endfacet
facet normal -0.7071056 -0.70710796 0
 outer loop
  vertex 3.1914215 2.8378682 0
  vertex 3.1207106 2.9085789 0.2
  vertex 3.1207106 2.9085789 0
 endloop
endfacet
facet normal -0.70710677 0.70710677 0
 outer loop
  vertex 3.1207106 2.9085789 0
  vertex 3.1207106 2.9085789 0.2
  vertex 3.1914213 2.9792895 0.2
 endloop
endfacet
facet normal -0.70710677 0.70710677 0
 outer loop
  vertex 3.1207106 2.9085789 0
  vertex 3.1914213 2.9792895 0.2
  vertex 3.1914213 2.9792895 0
 endloop
endfacet
facet normal 0.70710796 0.7071056 0
 outer loop
  vertex 3.1914213 2.9792895 0
  vertex 3.1914213 2.9792895 0.2
  vertex 3.262132 2.9085786 0.2
 endloop
endfacet
facet normal 0.70710796 0.7071056 -0
 outer loop
  vertex 3.1914213 2.9792895 0
  vertex 3.262132 2.9085786 0.2
  vertex 3.262132 2.9085786 0
 endloop
endfacet
facet normal 0.70710677 -0.70710677 0
 outer loop
  vertex 3.262132 2.9085786 0
  vertex 3.262132 2.9085786 0.2
  vertex 3.1914215 2.8378682 0.2
 endloop
endfacet
facet normal 0.70710677 -0.70710677 0
 outer loop
  vertex 3.262132 2.9085786 0
  vertex 3.1914215 2.8378682 0.2
  vertex 3.1914215 2.8378682 0
 endloop
endfacet
facet normal -0 0 -1
 outer loop
  vertex 3.1207106 2.9085789 0
  vertex 3.1914213 2.9792895 0
  vertex 3.262132 2.9085786 0
 endloop
endfacet
facet normal 0 0 -1
 outer loop
  vertex 3.1207106 2.9085789 0
  vertex 3.262132 2.9085786 0
  vertex 3.1914215 2.8378682 0
 endloop
endfacet
facet normal 0 -0 1
 outer loop
  vertex 3.1914213 2.9792895 0.2
  vertex 3.1207106 2.9085789 0.2
  vertex 3.1914215 2.8378682 0.2
 endloop
endfacet
facet normal 0 0 1
 outer loop
  vertex 3.1914213 2.9792895 0.2
  vertex 3.1914215 2.8378682 0.2
  vertex 3.262132 2.9085786 0.2
 endloop
endfacet
facet normal -0.70710796 -0.7071056 -0
 outer loop
  vertex 3.05 2.6964467 0
  vertex 3.05 2.6964467 0.2
  vertex 2.9792893 2.7671576 0.2
 endloop
endfacet
facet normal -0.70710796 -0.7071056 0
 outer loop
  vertex 3.05 2.6964467 0
  vertex 2.9792893 2.7671576 0.2
  vertex 2.9792893 2.7671576 0
 endloop
endfacet
facet normal -0.70710677 0.70710677 0
 outer loop
  vertex 2.9792893 2.7671576 0
  vertex 2.9792893 2.7671576 0.2
  vertex 3.05 2.8378682 0.2
 endloop
endfacet
facet normal -0.70710677 0.70710677 0
 outer loop
  vertex 2.9792893 2.7671576 0
  vertex 3.05 2.8378682 0.2
  vertex 3.05 2.8378682 0
 endloop
endfacet
facet normal 0.70710796 0.7071056 0
 outer loop
  vertex 3.05 2.8378682 0
  vertex 3.05 2.8378682 0.2
  vertex 3.1207106 2.7671573 0.2
 endloop
endfacet
facet normal 0.70710796 0.7071056 -0
 outer loop
  vertex 3.05 2.8378682 0
  vertex 3.1207106 2.7671573 0.2
  vertex 3.1207106 2.7671573 0
 endloop
endfacet
facet normal 0.70710677 -0.70710677 0
 outer loop
  vertex 3.1207106 2.7671573 0
  vertex 3.1207106 2.7671573 0.2
  vertex 3.05 2.6964467 0.2
 endloop
endfacet
facet normal 0.70710677 -0.70710677 0
 outer loop
  vertex 3.1207106 2.7671573 0
  vertex 3.05 2.6964467 0.2
  vertex 3.05 2.6964467 0
 endloop
endfacet
facet normal -0 0 -1
 outer loop
  vertex 2.9792893 2.7671576 0
  vertex 3.05 2.8378682 0
  vertex 3.1207106 2.7671573 0
 endloop
endfacet
facet normal 0 0 -1
 outer loop
  vertex 2.9792893 2.7671576 0
  vertex 3.1207106 2.7671573 0
  vertex 3.05 2.6964467 0
 endloop
endfacet
facet normal 0 -0 1
 outer loop
  vertex 3.05 2.8378682 0.2
  vertex 2.9792893 2.7671576 0.2
  vertex 3.05 2.6964467 0.2
 endloop
endfacet
facet normal 0 -0 1
 outer loop
  vertex 3.05 2.8378682 0.2
  vertex 3.05 2.6964467 0.2
  vertex 3.1207106 2.7671573 0.2
 endloop
endfacet
facet normal -0.70710677 -0.70710677 -0
 outer loop
  vertex 2.7671573 2.9792895 0
  vertex 2.7671573 2.9792895 0.2
  vertex 2.6964467 3.0500002 0.2
 endloop
endfacet
facet normal -0.70710677 -0.70710677 0
 outer loop
  vertex 2.7671573 2.9792895 0
  vertex 2.6964467 3.0500002 0.2
  vertex 2.6964467 3.0500002 0
 endloop
endfacet
facet normal -0.7071056 0.707108 0
 outer loop
  vertex 2.6964467 3.0500002 0
  vertex 2.6964467 3.0500002 0.2
  vertex 2.7671573 3.1207106 0.2
 endloop
endfacet
facet normal -0.7071056 0.707108 0
 outer loop
  vertex 2.6964467 3.0500002 0
  vertex 2.7671573 3.1207106 0.2
  vertex 2.7671573 3.1207106 0
 endloop
endfacet
facet normal 0.70710677 0.70710677 0
 outer loop
  vertex 2.7671573 3.1207106 0
  vertex 2.7671573 3.1207106 0.2
  vertex 2.8378677 3.0500002 0.2
 endloop
endfacet
facet normal 0.70710677 0.70710677 -0
 outer loop
  vertex 2.7671573 3.1207106 0
  vertex 2.8378677 3.0500002 0.2
  vertex 2.8378677 3.0500002 0
 endloop
endfacet
facet normal 0.707108 -0.7071056 0
 outer loop
  vertex 2.8378677 3.0500002 0
  vertex 2.8378677 3.0500002 0.2
  vertex 2.7671573 2.9792895 0.2
 endloop
endfacet
facet normal 0.707108 -0.7071056 0
 outer loop
  vertex 2.8378677 3.0500002 0
  vertex 2.7671573 2.9792895 0.2
  vertex 2.7671573 2.9792895 0
 endloop
endfacet
facet normal -0 0 -1
 outer loop
  vertex 2.6964467 3.0500002 0
  vertex 2.7671573 3.1207106 0
  vertex 2.8378677 3.0500002 0
 endloop
endfacet
facet normal 0 0 -1
 outer loop
  vertex 2.6964467 3.0500002 0
  vertex 2.8378677 3.0500002 0
  vertex 2.7671573 2.9792895 0
 endloop
endfacet
facet normal 0 -0 1
 outer loop
  vertex 2.7671573 3.1207106 0.2
  vertex 2.6964467 3.0500002 0.2
  vertex 2.7671573 2.9792895 0.2
 endloop
endfacet
facet normal 0 -0 1
 outer loop
  vertex 2.7671573 3.1207106 0.2
  vertex 2.7671573 2.9792895 0.2
  vertex 2.8378677 3.0500002 0.2
 endloop
endfacet
endsolid 
