solid 
facet normal -1 -0 -0
 outer loop
  vertex 2.8 3 0
  vertex 2.8 3 0.3
  vertex 2.8 3.1000001 0.3
 endloop
endfacet
facet normal -1 -0 0
 outer loop
  vertex 2.8 3 0
  vertex 2.8 3.1000001 0.3
  vertex 2.8 3.1000001 0
 endloop
endfacet
facet normal 0 1 0
 outer loop
  vertex 2.8 3.1000001 0
  vertex 2.8 3.1000001 0.3
  vertex 2.9 3.1000001 0.3
 endloop
endfacet
facet normal 0 1 -0
 outer loop
  vertex 2.8 3.1000001 0
  vertex 2.9 3.1000001 0.3
  vertex 2.9 3.1000001 0
 endloop
endfacet
facet normal 1 -0 0
 outer loop
  vertex 2.9 3.1000001 0
  vertex 2.9 3.1000001 0.3
  vertex 2.9 3 0.3
 endloop
endfacet
facet normal 1 -0 0
 outer loop
  vertex 2.9 3.1000001 0
  vertex 2.9 3 0.3
  vertex 2.9 3 0
 endloop
endfacet
facet normal 0 -1 0
 outer loop
  vertex 2.9 3 0
  vertex 2.9 3 0.3
  vertex 2.8 3 0.3
 endloop
endfacet
facet normal 0 -1 0
 outer loop
  vertex 2.9 3 0
  vertex 2.8 3 0.3
  vertex 2.8 3 0
 endloop
endfacet
facet normal 0 0 -1
 outer loop
  vertex 2.8 3.1000001 0
  vertex 2.9 3.1000001 0
  vertex 2.9 3 0
 endloop
endfacet
facet normal 0 0 -1
 outer loop
  vertex 2.8 3.1000001 0
  vertex 2.9 3 0
  vertex 2.8 3 0
 endloop
endfacet
facet normal 0 0 1
 outer loop
  vertex 2.9 3.1000001 0.3
  vertex 2.8 3.1000001 0.3
  vertex 2.8 3 0.3
 endloop
endfacet
facet normal 0 -0 1
 outer loop
  vertex 2.9 3.1000001 0.3
  vertex 2.8 3 0.3
  vertex 2.9 3 0.3
 endloop
endfacet
facet normal -1 -0 -0
 outer loop
  vertex 3.2000003 3.0000002 0
  vertex 3.2000003 3.0000002 0.3
  vertex 3.2000003 3.1000001 0.3
 endloop
endfacet
facet normal -1 -0 0
 outer loop
  vertex 3.2000003 3.0000002 0
  vertex 3.2000003 3.1000001 0.3
  vertex 3.2000003 3.1000001 0
 endloop
endfacet
facet normal 0 1 0
 outer loop
  vertex 3.2000003 3.1000001 0
  vertex 3.2000003 3.1000001 0.3
  vertex 3.3000002 3.1000001 0.3
 endloop
endfacet
facet normal 0 1 -0
 outer loop
  vertex 3.2000003 3.1000001 0
  vertex 3.3000002 3.1000001 0.3
  vertex 3.3000002 3.1000001 0
 endloop
endfacet
facet normal 1 -0 0
 outer loop
  vertex 3.3000002 3.1000001 0
  vertex 3.3000002 3.1000001 0.3
  vertex 3.3000002 3.0000002 0.3
 endloop
endfacet
facet normal 1 -0 0
 outer loop
  vertex 3.3000002 3.1000001 0
  vertex 3.3000002 3.0000002 0.3
  vertex 3.3000002 3.0000002 0
 endloop
endfacet
facet normal 0 -1 0
 outer loop
  vertex 3.3000002 3.0000002 0
  vertex 3.3000002 3.0000002 0.3
  vertex 3.2000003 3.0000002 0.3
 endloop
endfacet
facet normal 0 -1 0
 outer loop
  vertex 3.3000002 3.0000002 0
  vertex 3.2000003 3.0000002 0.3
  vertex 3.2000003 3.0000002 0
 endloop
endfacet
facet normal 0 0 -1
 outer loop
  vertex 3.2000003 3.1000001 0
  vertex 3.3000002 3.1000001 0
  vertex 3.3000002 3.0000002 0
 endloop
endfacet
facet normal 0 0 -1
 outer loop
  vertex 3.2000003 3.1000001 0
  vertex 3.3000002 3.0000002 0
  vertex 3.2000003 3.0000002 0
 endloop
endfacet
facet normal 0 0 1
 outer loop
  vertex 3.3000002 3.1000001 0.3
  vertex 3.2000003 3.1000001 0.3
  vertex 3.2000003 3.0000002 0.3
 endloop
endfacet
facet normal 0 -0 1
 outer loop
  vertex 3.3000002 3.1000001 0.3
  vertex 3.2000003 3.0000002 0.3
  vertex 3.3000002 3.0000002 0.3
 endloop
endfacet
facet normal -1 -0 -0
 outer loop
  vertex 3.2000003 3.2000003 0
  vertex 3.2000003 3.2000003 0.3
  vertex 3.2000003 3.3000002 0.3
 endloop
endfacet
facet normal -1 -0 0
 outer loop
  vertex 3.2000003 3.2000003 0
  vertex 3.2000003 3.3000002 0.3
  vertex 3.2000003 3.3000002 0
 endloop
endfacet
facet normal 0 1 0
 outer loop
  vertex 3.2000003 3.3000002 0
  vertex 3.2000003 3.3000002 0.3
  vertex 3.3000002 3.3000002 0.3
 endloop
endfacet
facet normal 0 1 -0
 outer loop
  vertex 3.2000003 3.3000002 0
  vertex 3.3000002 3.3000002 0.3
  vertex 3.3000002 3.3000002 0
 endloop
endfacet
facet normal 1 -0 0
 outer loop
  vertex 3.3000002 3.3000002 0
  vertex 3.3000002 3.3000002 0.3
  vertex 3.3000002 3.2000003 0.3
 endloop
endfacet
facet normal 1 -0 0
 outer loop
  vertex 3.3000002 3.3000002 0
  vertex 3.3000002 3.2000003 0.3
  vertex 3.3000002 3.2000003 0
 endloop
endfacet
facet normal 0 -1 0
 outer loop
  vertex 3.3000002 3.2000003 0
  vertex 3.3000002 3.2000003 0.3
  vertex 3.2000003 3.2000003 0.3
 endloop
endfacet
facet normal 0 -1 0
 outer loop
  vertex 3.3000002 3.2000003 0
  vertex 3.2000003 3.2000003 0.3
  vertex 3.2000003 3.2000003 0
 endloop
endfacet
facet normal 0 0 -1
 outer loop
  vertex 3.2000003 3.3000002 0
  vertex 3.3000002 3.3000002 0
  vertex 3.3000002 3.2000003 0
 endloop
endfacet
facet normal 0 0 -1
 outer loop
  vertex 3.2000003 3.3000002 0
  vertex 3.3000002 3.2000003 0
  vertex 3.2000003 3.2000003 0
 endloop
endfacet
facet normal 0 0 1
 outer loop
  vertex 3.3000002 3.3000002 0.3
  vertex 3.2000003 3.3000002 0.3
  vertex 3.2000003 3.2000003 0.3
 endloop
endfacet
facet normal 0 -0 1
 outer loop
  vertex 3.3000002 3.3000002 0.3
  vertex 3.2000003 3.2000003 0.3
  vertex 3.3000002 3.2000003 0.3
 endloop
endfacet
facet normal -1 -0 -0
 outer loop
  vertex 3.2000003 2.8000002 0
  vertex 3.2000003 2.8000002 0.3
  vertex 3.2000003 2.9000003 0.3
 endloop
endfacet
facet normal -1 -0 0
 outer loop
  vertex 3.2000003 2.8000002 0
  vertex 3.2000003 2.9000003 0.3
  vertex 3.2000003 2.9000003 0
 endloop
endfacet
facet normal 0 1 0
 outer loop
  vertex 3.2000003 2.9000003 0
  vertex 3.2000003 2.9000003 0.3
  vertex 3.3000002 2.9000003 0.3
 endloop
endfacet
facet normal 0 1 -0
 outer loop
  vertex 3.2000003 2.9000003 0
  vertex 3.3000002 2.9000003 0.3
  vertex 3.3000002 2.9000003 0
 endloop
endfacet
facet normal 1 -0 0
 outer loop
  vertex 3.3000002 2.9000003 0
  vertex 3.3000002 2.9000003 0.3
  vertex 3.3000002 2.8000002 0.3
 endloop
endfacet
facet normal 1 -0 0
 outer loop
  vertex 3.3000002 2.9000003 0
  vertex 3.3000002 2.8000002 0.3
  vertex 3.3000002 2.8000002 0
 endloop
endfacet
facet normal 0 -1 0
 outer loop
  vertex 3.3000002 2.8000002 0
  vertex 3.3000002 2.8000002 0.3
  vertex 3.2000003 2.8000002 0.3
 endloop
endfacet
facet normal 0 -1 0
 outer loop
  vertex 3.3000002 2.8000002 0
  vertex 3.2000003 2.8000002 0.3
  vertex 3.2000003 2.8000002 0
 endloop
endfacet
facet normal 0 0 -1
 outer loop
  vertex 3.2000003 2.9000003 0
  vertex 3.3000002 2.9000003 0
  vertex 3.3000002 2.8000002 0
 endloop
endfacet
facet normal 0 0 -1
 outer loop
  vertex 3.2000003 2.9000003 0
  vertex 3.3000002 2.8000002 0
  vertex 3.2000003 2.8000002 0
 endloop
endfacet
facet normal 0 0 1
 outer loop
  vertex 3.3000002 2.9000003 0.3
  vertex 3.2000003 2.9000003 0.3
  vertex 3.2000003 2.8000002 0.3
 endloop
endfacet
facet normal 0 -0 1
 outer loop
  vertex 3.3000002 2.9000003 0.3
  vertex 3.2000003 2.8000002 0.3
  vertex 3.3000002 2.8000002 0.3
 endloop
endfacet
facet normal -1 -0 -0
 outer loop
  vertex 3.0000002 3.2000003 0
  vertex 3.0000002 3.2000003 0.3
  vertex 3.0000002 3.3000002 0.3
 endloop
endfacet
facet normal -1 -0 0
 outer loop
  vertex 3.0000002 3.2000003 0
  vertex 3.0000002 3.3000002 0.3
  vertex 3.0000002 3.3000002 0
 endloop
endfacet
facet normal 0 1 0
 outer loop
  vertex 3.0000002 3.3000002 0
  vertex 3.0000002 3.3000002 0.3
  vertex 3.1000001 3.3000002 0.3
 endloop
endfacet
facet normal 0 1 -0
 outer loop
  vertex 3.0000002 3.3000002 0
  vertex 3.1000001 3.3000002 0.3
  vertex 3.1000001 3.3000002 0
 endloop
endfacet
facet normal 1 -0 0
 outer loop
  vertex 3.1000001 3.3000002 0
  vertex 3.1000001 3.3000002 0.3
  vertex 3.1000001 3.2000003 0.3
 endloop
endfacet
facet normal 1 -0 0
 outer loop
  vertex 3.1000001 3.3000002 0
  vertex 3.1000001 3.2000003 0.3
  vertex 3.1000001 3.2000003 0
 endloop
endfacet
facet normal 0 -1 0
 outer loop
  vertex 3.1000001 3.2000003 0
  vertex 3.1000001 3.2000003 0.3
  vertex 3.0000002 3.2000003 0.3
 endloop
endfacet
facet normal 0 -1 0
 outer loop
  vertex 3.1000001 3.2000003 0
  vertex 3.0000002 3.2000003 0.3
  vertex 3.0000002 3.2000003 0
 endloop
endfacet
facet normal 0 0 -1
 outer loop
  vertex 3.0000002 3.3000002 0
  vertex 3.1000001 3.3000002 0
  vertex 3.1000001 3.2000003 0
 endloop
endfacet
facet normal 0 0 -1
 outer loop
  vertex 3.0000002 3.3000002 0
  vertex 3.1000001 3.2000003 0
  vertex 3.0000002 3.2000003 0
 endloop
endfacet
facet normal 0 0 1
 outer loop
  vertex 3.1000001 3.3000002 0.3
  vertex 3.0000002 3.3000002 0.3
  vertex 3.0000002 3.2000003 0.3
 endloop
endfacet
facet normal 0 -0 1
 outer loop
  vertex 3.1000001 3.3000002 0.3
  vertex 3.0000002 3.2000003 0.3
  vertex 3.1000001 3.2000003 0.3
 endloop
endfacet
facet normal -1 -0 -0
 outer loop
  vertex 3.0000002 2.8000002 0
  vertex 3.0000002 2.8000002 0.3
  vertex 3.0000002 2.9000003 0.3
 endloop
endfacet
facet normal -1 -0 0
 outer loop
  vertex 3.0000002 2.8000002 0
  vertex 3.0000002 2.9000003 0.3
  vertex 3.0000002 2.9000003 0
 endloop
endfacet
facet normal 0 1 0
 outer loop
  vertex 3.0000002 2.9000003 0
  vertex 3.0000002 2.9000003 0.3
  vertex 3.1000001 2.9000003 0.3
 endloop
endfacet
facet normal 0 1 -0
 outer loop
  vertex 3.0000002 2.9000003 0
  vertex 3.1000001 2.9000003 0.3
  vertex 3.1000001 2.9000003 0
 endloop
endfacet
facet normal 1 -0 0
 outer loop
  vertex 3.1000001 2.9000003 0
  vertex 3.1000001 2.9000003 0.3
  vertex 3.1000001 2.8000002 0.3
 endloop
endfacet
facet normal 1 -0 0
 outer loop
  vertex 3.1000001 2.9000003 0
  vertex 3.1000001 2.8000002 0.3
  vertex 3.1000001 2.8000002 0
 endloop
endfacet
facet normal 0 -1 0
 outer loop
  vertex 3.1000001 2.8000002 0
  vertex 3.1000001 2.8000002 0.3
  vertex 3.0000002 2.8000002 0.3
 endloop
endfacet
facet normal 0 -1 0
 outer loop
  vertex 3.1000001 2.8000002 0
  vertex 3.0000002 2.8000002 0.3
  vertex 3.0000002 2.8000002 0
 endloop
endfacet
facet normal 0 0 -1
 outer loop
  vertex 3.0000002 2.9000003 0
  vertex 3.1000001 2.9000003 0
  vertex 3.1000001 2.8000002 0
 endloop
endfacet
facet normal 0 0 -1
 outer loop
  vertex 3.0000002 2.9000003 0
  vertex 3.1000001 2.8000002 0
  vertex 3.0000002 2.8000002 0
 endloop
endfacet
facet normal 0 0 1
 outer loop
  vertex 3.1000001 2.9000003 0.3
  vertex 3.0000002 2.9000003 0.3
  vertex 3.0000002 2.8000002 0.3
 endloop
endfacet
facet normal 0 -0 1
 outer loop
  vertex 3.1000001 2.9000003 0.3
  vertex 3.0000002 2.8000002 0.3
  vertex 3.1000001 2.8000002 0.3
 endloop
endfacet
facet normal -1 -0 -0
 outer loop
  vertex 2.8000002 2.8000002 0
  vertex 2.8000002 2.8000002 0.3
  vertex 2.8000002 2.9000003 0.3
 endloop
endfacet
facet normal -1 -0 0
 outer loop
  vertex 2.8000002 2.8000002 0
  vertex 2.8000002 2.9000003 0.3
  vertex 2.8000002 2.9000003 0
 endloop
endfacet
facet normal 0 1 0
 outer loop
  vertex 2.8000002 2.9000003 0
  vertex 2.8000002 2.9000003 0.3
  vertex 2.9 2.9000003 0.3
 endloop
endfacet
facet normal 0 1 -0
 outer loop
  vertex 2.8000002 2.9000003 0
  vertex 2.9 2.9000003 0.3
  vertex 2.9 2.9000003 0
 endloop
endfacet
facet normal 1 -0 0
 outer loop
  vertex 2.9 2.9000003 0
  vertex 2.9 2.9000003 0.3
  vertex 2.9 2.8000002 0.3
 endloop
endfacet
facet normal 1 -0 0
 outer loop
  vertex 2.9 2.9000003 0
  vertex 2.9 2.8000002 0.3
  vertex 2.9 2.8000002 0
 endloop
endfacet
facet normal 0 -1 0
 outer loop
  vertex 2.9 2.8000002 0
  vertex 2.9 2.8000002 0.3
  vertex 2.8000002 2.8000002 0.3
 endloop
endfacet
facet normal 0 -1 0
 outer loop
  vertex 2.9 2.8000002 0
  vertex 2.8000002 2.8000002 0.3
  vertex 2.8000002 2.8000002 0
 endloop
endfacet
facet normal 0 0 -1
 outer loop
  vertex 2.8000002 2.9000003 0
  vertex 2.9 2.9000003 0
  vertex 2.9 2.8000002 0
 endloop
endfacet
facet normal 0 0 -1
 outer loop
  vertex 2.8000002 2.9000003 0
  vertex 2.9 2.8000002 0
  vertex 2.8000002 2.8000002 0
 endloop
endfacet
facet normal 0 0 1
 outer loop
  vertex 2.9 2.9000003 0.3
  vertex 2.8000002 2.9000003 0.3
  vertex 2.8000002 2.8000002 0.3
 endloop
endfacet
facet normal 0 -0 1
 outer loop
  vertex 2.9 2.9000003 0.3
  vertex 2.8000002 2.8000002 0.3
  vertex 2.9 2.8000002 0.3
 endloop
endfacet
facet normal -1 -0 -0
 outer loop
  vertex 2.8000002 3.2000003 0
  vertex 2.8000002 3.2000003 0.3
  vertex 2.8000002 3.3000002 0.3
 endloop
endfacet
facet normal -1 -0 0
 outer loop
  vertex 2.8000002 3.2000003 0
  vertex 2.8000002 3.3000002 0.3
  vertex 2.8000002 3.3000002 0
 endloop
endfacet
facet normal 0 1 0
 outer loop
  vertex 2.8000002 3.3000002 0
  vertex 2.8000002 3.3000002 0.3
  vertex 2.9 3.3000002 0.3
 endloop
endfacet
facet normal 0 1 -0
 outer loop
  vertex 2.8000002 3.3000002 0
  vertex 2.9 3.3000002 0.3
  vertex 2.9 3.3000002 0
 endloop
endfacet
facet normal 1 -0 0
 outer loop
  vertex 2.9 3.3000002 0
  vertex 2.9 3.3000002 0.3
  vertex 2.9 3.2000003 0.3
 endloop
endfacet
facet normal 1 -0 0
 outer loop
  vertex 2.9 3.3000002 0
  vertex 2.9 3.2000003 0.3
  vertex 2.9 3.2000003 0
 endloop
endfacet
facet normal 0 -1 0
 outer loop
  vertex 2.9 3.2000003 0
  vertex 2.9 3.2000003 0.3
  vertex 2.8000002 3.2000003 0.3
 endloop
endfacet
facet normal 0 -1 0
 outer loop
  vertex 2.9 3.2000003 0
  vertex 2.8000002 3.2000003 0.3
  vertex 2.8000002 3.2000003 0
 endloop
endfacet
facet normal 0 0 -1
 outer loop
  vertex 2.8000002 3.3000002 0
  vertex 2.9 3.3000002 0
  vertex 2.9 3.2000003 0
 endloop
endfacet
facet normal 0 0 -1
 outer loop
  vertex 2.8000002 3.3000002 0
  vertex 2.9 3.2000003 0
  vertex 2.8000002 3.2000003 0
 endloop
endfacet
facet normal 0 0 1
 outer loop
  vertex 2.9 3.3000002 0.3
  vertex 2.8000002 3.3000002 0.3
  vertex 2.8000002 3.2000003 0.3
 endloop
endfacet
facet normal 0 -0 1
 outer loop
  vertex 2.9 3.3000002 0.3
  vertex 2.8000002 3.2000003 0.3
  vertex 2.9 3.2000003 0.3
 endloop
endfacet
endsolid 
